<svg id="visual" viewBox="0 0 900 600" width="900" height="600" xmlns="http://www.w3.org/2000/svg" xmlns:xlink="http://www.w3.org/1999/xlink" version="1.1"><rect x="0" y="0" width="900" height="600" fill="#002233"></rect><path d="M0 383L21.5 403C43 423 86 463 128.8 475.3C171.7 487.7 214.3 472.3 257.2 475.3C300 478.3 343 499.7 385.8 495.3C428.7 491 471.3 461 514.2 450.5C557 440 600 449 642.8 451.7C685.7 454.3 728.3 450.7 771.2 459.8C814 469 857 491 878.5 502L900 513L900 601L878.5 601C857 601 814 601 771.2 601C728.3 601 685.7 601 642.8 601C600 601 557 601 514.2 601C471.3 601 428.7 601 385.8 601C343 601 300 601 257.2 601C214.3 601 171.7 601 128.8 601C86 601 43 601 21.5 601L0 601Z" fill="#001122" stroke-linecap="round" stroke-linejoin="miter"></path></svg>