<svg xmlns="http://www.w3.org/2000/svg" width="451.174" height="414.23" viewBox="0 0 451.174 414.23">
  <g id="Bookings_Hero" data-name="Bookings Hero" transform="translate(-1085.08 -182.504)">
    <path id="Path_3257" data-name="Path 3257" d="M1413.45,586.847l-14.985-18.01a2.661,2.661,0,0,0-2.422-1.677,2.786,2.786,0,0,0-2.386,1.774l-27.1,35.71-19.6-19.057a2.36,2.36,0,0,0-3.549.115l-19.137,20.637H1216.56c-1.57,0-1.57,7.311,0,7.311h108.754a2.475,2.475,0,0,0,1.828-.887l18.2-19.616,20.291,19.732a2.4,2.4,0,0,0,2.245.683,2.954,2.954,0,0,0,1.89-1.686l26.377-34.211,13.814,15.668a2.535,2.535,0,0,0,3.451,1.411" transform="translate(-14.326 -44.193)" fill="#e1f3ff"/>
    <path id="Path_3258" data-name="Path 3258" d="M1548.682,514.926c-1.285-.887-2.235-.621-3.537-.151a9.134,9.134,0,0,0-3.16,2.271l-62.74,63.6-20.518-19.057a2.561,2.561,0,0,0-3.717.115l-20.1,20.645h2.333c-1.637,0-3.087,4.436-1.441,4.436l.2,1.925c.7,0,1.376.63,1.916.08L1457,569.17l21.287,19.732a2.6,2.6,0,0,0,2.35.683,3.065,3.065,0,0,0,1.989-1.686l61.987-62.1c2.8-3.043,4.52-5.323,4.79-6.938C1549.926,515.626,1549.68,515.76,1548.682,514.926Z" transform="translate(-38.729 -38.235)" fill="#e1f3ff"/>
    <g id="Plant" transform="translate(1085.08 206.616)">
      <path id="Path_3259" data-name="Path 3259" d="M1146,454.19a237.5,237.5,0,0,1,13.37,36.056,379.237,379.237,0,0,1,8.81,37.511l1.544,9.511c.55,3.167.967,6.361,1.348,9.547l1.18,9.582.887,9.609.426,4.8.257,4.818.5,9.644c.249,6.432.213,12.865.328,19.306l-3.655-.062c0-6.388.222-12.776.133-19.164l-.266-9.573-.142-4.791-.311-4.782-.621-9.573-.949-9.537c-.3-3.185-.639-6.37-1.109-9.529l-1.322-9.5a379.555,379.555,0,0,0-7.887-37.564A249.174,249.174,0,0,0,1146,454.19Z" transform="translate(-1091.951 -239.103)" fill="#00aeef" opacity="0.7"/>
      <path id="Path_3260" data-name="Path 3260" d="M1085.08,334.16s43.163,24.567,61.377,47.421,18.214,84.471,18.214,93.459c0,0-21.506-68.936-35.347-79.61S1093.127,367.626,1085.08,334.16Z" transform="translate(-1085.08 -225.565)" fill="#00aeef" opacity="0.7"/>
      <path id="Path_3261" data-name="Path 3261" d="M1104.709,357.12c4.711,3.008,9.262,6.21,13.716,9.644s8.872,6.84,13.007,10.647a90.627,90.627,0,0,1,11.667,12.572,35.166,35.166,0,0,1,2.413,3.78c.39.648.683,1.393,1.02,2.1l.816,1.916,3.274,7.692a296.8,296.8,0,0,1,18.259,64.766,301.554,301.554,0,0,1,3.948,33.448c.834,11.17,1.091,22.349,1.313,33.51q.559,33.475-1.411,66.887h-.355q.408-33.386-.781-66.789c-.444-11.126-1.047-22.242-1.952-33.332a326.679,326.679,0,0,0-4.241-33.093c-3.922-21.9-9.475-43.535-17.664-64.252l-3.025-7.781a29.84,29.84,0,0,0-3.744-7.364,88.926,88.926,0,0,0-10.939-12.527,263.226,263.226,0,0,0-25.49-21.506Z" transform="translate(-1087.275 -228.155)" fill="#e1f3ff"/>
      <path id="Path_3262" data-name="Path 3262" d="M1201.545,340.475s-20.122,26.155-20.459,55.007-6.37,66.328-4.693,83.469c0,0,11.4-55.069,18.108-70.445s43.012-88.819,76.167-99.217C1270.668,309.281,1227.363,309.618,1201.545,340.475Z" transform="translate(-1095.346 -222.76)" fill="#00aeef" opacity="0.6"/>
      <path id="Path_3263" data-name="Path 3263" d="M1239.843,324.4a67.65,67.65,0,0,0-17.141,13.61,104.022,104.022,0,0,0-13.14,17.416c-7.852,12.359-12.119,26.368-15.97,40.528q-2.848,10.647-5.2,21.4c-1.65,7.16-3.087,14.373-4.551,21.577s-2.839,14.444-4.17,21.692-2.662,14.488-3.993,21.746q1.713-22.065,5.323-43.952c2.351-14.577,5.27-29.083,9.067-43.4a220.81,220.81,0,0,1,6.8-21.213,112.338,112.338,0,0,1,4.6-10.247l2.741-4.871c.887-1.624,1.987-3.158,2.972-4.747a96.176,96.176,0,0,1,14.275-17.15C1226.943,331.808,1232.923,327.168,1239.843,324.4Z" transform="translate(-1095.298 -224.465)" fill="#e1f3ff"/>
      <path id="Path_3264" data-name="Path 3264" d="M1145.8,239.476c-5.714,9.387-8.322,23.706-3.265,43.828s24.283,72.441,24.735,91.214c0,0,4.019-51.458,0-79.592s1.42-70.205,4.738-83.167C1172.01,211.76,1150.771,231.341,1145.8,239.476Z" transform="translate(-1091.256 -211.76)" fill="#00aeef" opacity="0.8"/>
      <path id="Path_3265" data-name="Path 3265" d="M1162.416,231.41a61.944,61.944,0,0,0-8.056,28.045,66,66,0,0,0,.887,14.55c.133,1.207.488,2.378.727,3.549s.488,2.36.807,3.549c.6,2.4,1.233,4.809,1.775,7.231a498.709,498.709,0,0,1,9.91,58.654c1.038,9.875,1.775,19.785,1.979,29.757s.506,19.732.8,29.606q1.056,29.633,1.819,59.319-2.848-29.562-4.667-59.186-.949-14.808-1.411-29.677c-.275-9.8-1.056-19.634-2.156-29.429s-2.342-19.572-3.842-29.278-3.247-19.457-5.2-29.118c-.479-2.413-1.038-4.818-1.561-7.222s-1.047-4.915-1.34-7.408a66.554,66.554,0,0,1-.266-15.029,63.5,63.5,0,0,1,3.2-14.612,52.816,52.816,0,0,1,6.592-13.3Z" transform="translate(-1092.664 -213.976)" fill="#e1f3ff"/>
      <path id="Path_3266" data-name="Path 3266" d="M1187.028,545.69q-.488,15.411-.115,30.822c.248,10.265.8,20.512,1.934,30.653l-3.638.31c-.541-10.354-.479-20.672-.124-30.972S1186.088,555.928,1187.028,545.69Z" transform="translate(-1096.328 -249.423)" fill="#00aeef" opacity="0.7"/>
      <path id="Path_3267" data-name="Path 3267" d="M1192.877,646.765h-30.431a4.941,4.941,0,0,1-4.888-4.374L1154.07,614H1201.3l-3.487,28.391a4.942,4.942,0,0,1-4.933,4.374Z" transform="translate(-1092.861 -257.128)" fill="#5968f6"/>
      <rect id="Rectangle_3788" data-name="Rectangle 3788" width="53.747" height="15.42" rx="2.63" transform="translate(58.059 347.166)" fill="#5968f6"/>
      <path id="Rectangle_21" data-name="Rectangle 21" d="M1199.032,633.767h-42.551l-1.641-13.317h45.824l-1.633,13.317" transform="translate(-1092.948 -257.856)" fill="#e1f3ff"/>
    </g>
    <g id="Group_26310" data-name="Group 26310" transform="translate(833.127 84.711)">
      <g id="Group_26287" data-name="Group 26287">
        <g id="Group_26199" data-name="Group 26199">
          <g id="Group_26195" data-name="Group 26195">
            <rect id="Rectangle_6385" data-name="Rectangle 6385" width="367.296" height="237.967" rx="32.049" transform="translate(335.831 97.794)" fill="#f8fcff"/>
          </g>
          <g id="Group_26196" data-name="Group 26196">
            <path id="Path_71365" data-name="Path 71365" d="M703.11,129.133a32.043,32.043,0,0,0-32.032-31.339h-303.2a32.043,32.043,0,0,0-32.032,31.339Z" fill="#545ed6"/>
          </g>
          <g id="Group_26197" data-name="Group 26197">
            <path id="Path_71366" data-name="Path 71366" d="M682.565,114.769a5.064,5.064,0,1,1-5.064-5.064A5.064,5.064,0,0,1,682.565,114.769Z" fill="#fff"/>
          </g>
          <g id="Group_26198" data-name="Group 26198">
            <circle id="Ellipse_1582" data-name="Ellipse 1582" cx="5.064" cy="5.064" r="5.064" transform="translate(653.45 109.705)" fill="#fff"/>
          </g>
        </g>
        <g id="Group_26200" data-name="Group 26200">
          <path id="Path_71367" data-name="Path 71367" d="M504.971,135.727h1.057v5.645a2.76,2.76,0,0,1-.186,1.048,2.073,2.073,0,0,1-.523.764,2.246,2.246,0,0,1-.8.465,3.091,3.091,0,0,1-1.01.159,3.441,3.441,0,0,1-1.013-.14,2.134,2.134,0,0,1-.794-.427,1.935,1.935,0,0,1-.52-.722A2.586,2.586,0,0,1,501,141.5h1.051a1.748,1.748,0,0,0,.109.652,1.227,1.227,0,0,0,.3.451,1.186,1.186,0,0,0,.46.264,1.979,1.979,0,0,0,.592.084,1.618,1.618,0,0,0,.58-.1,1.3,1.3,0,0,0,.465-.3,1.346,1.346,0,0,0,.307-.493,1.964,1.964,0,0,0,.109-.684Z" fill="#545ed6"/>
          <path id="Path_71368" data-name="Path 71368" d="M511.316,143.7a1.069,1.069,0,0,1-.087-.276c-.022-.112-.04-.227-.055-.348a2.772,2.772,0,0,1-.32.283,2.324,2.324,0,0,1-.389.235,2.239,2.239,0,0,1-.457.159,2.3,2.3,0,0,1-.52.057,2.362,2.362,0,0,1-.824-.137,1.915,1.915,0,0,1-.63-.372,1.656,1.656,0,0,1-.544-1.243,1.808,1.808,0,0,1,.186-.84,1.671,1.671,0,0,1,.534-.611,2.509,2.509,0,0,1,.84-.372,4.441,4.441,0,0,1,1.1-.125h1.007v-.466a1.137,1.137,0,0,0-.317-.846,1.274,1.274,0,0,0-.936-.314,1.67,1.67,0,0,0-.52.076,1.351,1.351,0,0,0-.4.205.955.955,0,0,0-.26.3.728.728,0,0,0-.093.356H507.61a1.333,1.333,0,0,1,.167-.631,1.869,1.869,0,0,1,.473-.561,2.515,2.515,0,0,1,.742-.4,2.843,2.843,0,0,1,.972-.157,3.039,3.039,0,0,1,.89.124,1.9,1.9,0,0,1,.7.372,1.719,1.719,0,0,1,.454.621,2.134,2.134,0,0,1,.165.871v2.753a4.157,4.157,0,0,0,.051.633,2.414,2.414,0,0,0,.156.572v.087Zm-1.68-.772a1.691,1.691,0,0,0,.514-.076,1.951,1.951,0,0,0,.438-.2,1.588,1.588,0,0,0,.342-.282,1.321,1.321,0,0,0,.227-.329v-1.214h-.843a2.727,2.727,0,0,0-1.341.27.886.886,0,0,0-.471.819,1.1,1.1,0,0,0,.072.4.833.833,0,0,0,.216.32,1.071,1.071,0,0,0,.356.213A1.38,1.38,0,0,0,509.636,142.926Z" fill="#545ed6"/>
          <path id="Path_71369" data-name="Path 71369" d="M514.716,137.775l.033.745a2.281,2.281,0,0,1,.767-.628,2.216,2.216,0,0,1,1.007-.227,2.427,2.427,0,0,1,.782.118,1.436,1.436,0,0,1,.6.378,1.744,1.744,0,0,1,.381.668,3.2,3.2,0,0,1,.134.988V143.7H517.4v-3.892a2.009,2.009,0,0,0-.076-.588.981.981,0,0,0-.228-.4.908.908,0,0,0-.372-.224,1.689,1.689,0,0,0-.512-.071,1.465,1.465,0,0,0-.865.262,1.8,1.8,0,0,0-.58.69V143.7h-1.013v-5.923Z" fill="#545ed6"/>
          <path id="Path_71370" data-name="Path 71370" d="M523.6,143.112a1.894,1.894,0,0,1-.706.513,2.608,2.608,0,0,1-1.029.183,2.392,2.392,0,0,1-.794-.124,1.529,1.529,0,0,1-.613-.388,1.76,1.76,0,0,1-.4-.685,3.2,3.2,0,0,1-.14-1.009v-3.827h1.013v3.838a1.991,1.991,0,0,0,.093.66,1.077,1.077,0,0,0,.246.41.827.827,0,0,0,.351.208,1.452,1.452,0,0,0,.405.057,1.851,1.851,0,0,0,.994-.235,1.413,1.413,0,0,0,.55-.629v-4.309h1.013V143.7h-.964Z" fill="#545ed6"/>
          <path id="Path_71371" data-name="Path 71371" d="M529.782,143.7a1.069,1.069,0,0,1-.088-.276c-.022-.112-.04-.227-.054-.348a2.7,2.7,0,0,1-.321.283,2.276,2.276,0,0,1-.388.235,2.241,2.241,0,0,1-.457.159,2.311,2.311,0,0,1-.521.057,2.37,2.37,0,0,1-.824-.137,1.91,1.91,0,0,1-.629-.372,1.638,1.638,0,0,1-.4-.556,1.667,1.667,0,0,1-.143-.687,1.821,1.821,0,0,1,.186-.84,1.69,1.69,0,0,1,.534-.611,2.527,2.527,0,0,1,.84-.372,4.455,4.455,0,0,1,1.1-.125h1.007v-.466a1.137,1.137,0,0,0-.317-.846,1.276,1.276,0,0,0-.936-.314,1.681,1.681,0,0,0-.521.076,1.333,1.333,0,0,0-.4.205.955.955,0,0,0-.26.3.728.728,0,0,0-.093.356h-1.019a1.323,1.323,0,0,1,.168-.631,1.87,1.87,0,0,1,.473-.561,2.516,2.516,0,0,1,.742-.4,2.839,2.839,0,0,1,.972-.157,3.032,3.032,0,0,1,.889.124,1.894,1.894,0,0,1,.7.372,1.721,1.721,0,0,1,.455.621,2.152,2.152,0,0,1,.164.871v2.753a4.042,4.042,0,0,0,.052.633,2.366,2.366,0,0,0,.156.572v.087Zm-1.681-.772a1.693,1.693,0,0,0,.515-.076,1.952,1.952,0,0,0,.438-.2,1.638,1.638,0,0,0,.342-.282,1.348,1.348,0,0,0,.227-.329v-1.214h-.843a2.727,2.727,0,0,0-1.341.27.886.886,0,0,0-.471.819,1.126,1.126,0,0,0,.071.4.844.844,0,0,0,.216.32,1.091,1.091,0,0,0,.356.213A1.387,1.387,0,0,0,528.1,142.926Z" fill="#545ed6"/>
          <path id="Path_71372" data-name="Path 71372" d="M535.087,138.684c-.088-.014-.169-.025-.244-.03s-.159-.008-.254-.008a1.466,1.466,0,0,0-.857.23,1.388,1.388,0,0,0-.495.618v4.2h-1.013v-5.923h.985l.017.684a1.778,1.778,0,0,1,.574-.58,1.618,1.618,0,0,1,1.09-.189.732.732,0,0,1,.2.053Z" fill="#545ed6"/>
          <path id="Path_71373" data-name="Path 71373" d="M538.054,142.215l1.38-4.44h1.084l-2.382,6.838a4.733,4.733,0,0,1-.213.476,2.082,2.082,0,0,1-.342.479,1.847,1.847,0,0,1-.507.372,1.505,1.505,0,0,1-.695.151.977.977,0,0,1-.142-.011c-.055-.007-.11-.015-.165-.025l-.153-.027c-.047-.01-.084-.018-.109-.025v-.821a.334.334,0,0,0,.06.009l.079.005.077.005.057,0a1.877,1.877,0,0,0,.455-.049,1.011,1.011,0,0,0,.35-.161,1.034,1.034,0,0,0,.266-.3,2.377,2.377,0,0,0,.205-.46l.225-.6-2.114-5.858h1.106Z" fill="#545ed6"/>
        </g>
        <g id="Group_26201" data-name="Group 26201">
          <path id="Path_71374" data-name="Path 71374" d="M489.259,144.836a.514.514,0,0,1-.364-.151l-4.045-4.044a.515.515,0,0,1,0-.728l4.1-4.1a.515.515,0,1,1,.728.728l-3.734,3.734,3.681,3.68a.515.515,0,0,1-.364.879Z" fill="#545ed6"/>
        </g>
        <g id="Group_26202" data-name="Group 26202">
          <path id="Path_71375" data-name="Path 71375" d="M550.671,144.836a.515.515,0,0,1-.364-.879l3.68-3.68-3.733-3.734a.515.515,0,1,1,.728-.728l4.1,4.1a.515.515,0,0,1,0,.728l-4.044,4.044A.518.518,0,0,1,550.671,144.836Z" fill="#545ed6"/>
        </g>
        <g id="Group_26203" data-name="Group 26203">
          <path id="Path_71376" data-name="Path 71376" d="M693.822,156.779H342.884a.413.413,0,0,1,0-.825H693.822a.413.413,0,0,1,0,.825Z" fill="#c0d6fd"/>
        </g>
        <g id="Group_26211" data-name="Group 26211">
          <g id="Group_26204" data-name="Group 26204">
            <path id="Path_71377" data-name="Path 71377" d="M393.322,202.148H342.884a.413.413,0,0,1-.412-.412V165.709a.413.413,0,0,1,.412-.412h50.438a.412.412,0,0,1,.411.412v36.027A.412.412,0,0,1,393.322,202.148Zm-50.026-.825H392.91v-35.2H343.3Z" fill="#c0d6fd"/>
          </g>
          <g id="Group_26205" data-name="Group 26205">
            <path id="Path_71378" data-name="Path 71378" d="M443.759,202.148H393.322a.412.412,0,0,1-.412-.412V165.709a.412.412,0,0,1,.412-.412h50.437a.413.413,0,0,1,.412.412v36.027A.413.413,0,0,1,443.759,202.148Zm-50.026-.825h49.614v-35.2H393.733Z" fill="#c0d6fd"/>
          </g>
          <g id="Group_26206" data-name="Group 26206">
            <path id="Path_71379" data-name="Path 71379" d="M494.2,202.148H443.759a.413.413,0,0,1-.412-.412V165.709a.413.413,0,0,1,.412-.412H494.2a.413.413,0,0,1,.412.412v36.027A.413.413,0,0,1,494.2,202.148Zm-50.026-.825h49.614v-35.2H444.171Z" fill="#c0d6fd"/>
          </g>
          <g id="Group_26207" data-name="Group 26207">
            <path id="Path_71380" data-name="Path 71380" d="M544.635,202.148H494.2a.413.413,0,0,1-.412-.412V165.709a.413.413,0,0,1,.412-.412h50.438a.412.412,0,0,1,.411.412v36.027A.412.412,0,0,1,544.635,202.148Zm-50.026-.825h49.614v-35.2H494.609Z" fill="#c0d6fd"/>
          </g>
          <g id="Group_26208" data-name="Group 26208">
            <path id="Path_71381" data-name="Path 71381" d="M595.037,202.148H544.6a.412.412,0,0,1-.411-.412V165.709a.412.412,0,0,1,.411-.412h50.438a.413.413,0,0,1,.412.412v36.027A.413.413,0,0,1,595.037,202.148Zm-50.026-.825h49.614v-35.2H545.011Z" fill="#c0d6fd"/>
          </g>
          <g id="Group_26209" data-name="Group 26209">
            <path id="Path_71382" data-name="Path 71382" d="M645.475,202.148H595.037a.413.413,0,0,1-.412-.412V165.709a.413.413,0,0,1,.412-.412h50.438a.413.413,0,0,1,.412.412v36.027A.413.413,0,0,1,645.475,202.148Zm-50.026-.825h49.614v-35.2H595.449Z" fill="#c0d6fd"/>
          </g>
          <g id="Group_26210" data-name="Group 26210">
            <path id="Path_71383" data-name="Path 71383" d="M695.913,202.148H645.475a.413.413,0,0,1-.412-.412V165.709a.413.413,0,0,1,.412-.412h50.438a.412.412,0,0,1,.411.412v36.027A.412.412,0,0,1,695.913,202.148Zm-50.026-.825H695.5v-35.2H645.887Z" fill="#c0d6fd"/>
          </g>
        </g>
        <g id="Group_26219" data-name="Group 26219">
          <g id="Group_26212" data-name="Group 26212">
            <path id="Path_71384" data-name="Path 71384" d="M393.322,273.554H342.884a.413.413,0,0,1-.412-.412V237.115a.413.413,0,0,1,.412-.412h50.438a.412.412,0,0,1,.411.412v36.027A.412.412,0,0,1,393.322,273.554Zm-50.026-.825H392.91v-35.2H343.3Z" fill="#c0d6fd"/>
          </g>
          <g id="Group_26213" data-name="Group 26213">
            <path id="Path_71385" data-name="Path 71385" d="M443.759,273.554H393.322a.412.412,0,0,1-.412-.412V237.115a.412.412,0,0,1,.412-.412h50.437a.413.413,0,0,1,.412.412v36.027A.413.413,0,0,1,443.759,273.554Zm-50.026-.825h49.614v-35.2H393.733Z" fill="#c0d6fd"/>
          </g>
          <g id="Group_26214" data-name="Group 26214">
            <path id="Path_71386" data-name="Path 71386" d="M494.2,273.554H443.759a.413.413,0,0,1-.412-.412V237.115a.413.413,0,0,1,.412-.412H494.2a.413.413,0,0,1,.412.412v36.027A.413.413,0,0,1,494.2,273.554Zm-50.026-.825h49.614v-35.2H444.171Z" fill="#c0d6fd"/>
          </g>
          <g id="Group_26215" data-name="Group 26215">
            <path id="Path_71387" data-name="Path 71387" d="M544.635,273.554H494.2a.413.413,0,0,1-.412-.412V237.115a.413.413,0,0,1,.412-.412h50.438a.412.412,0,0,1,.411.412v36.027A.412.412,0,0,1,544.635,273.554Zm-50.026-.825h49.614v-35.2H494.609Z" fill="#c0d6fd"/>
          </g>
          <g id="Group_26216" data-name="Group 26216">
            <path id="Path_71388" data-name="Path 71388" d="M595.037,273.554H544.6a.412.412,0,0,1-.411-.412V237.115a.412.412,0,0,1,.411-.412h50.438a.413.413,0,0,1,.412.412v36.027A.413.413,0,0,1,595.037,273.554Zm-50.026-.825h49.614v-35.2H545.011Z" fill="#c0d6fd"/>
          </g>
          <g id="Group_26217" data-name="Group 26217">
            <path id="Path_71389" data-name="Path 71389" d="M645.475,273.554H595.037a.413.413,0,0,1-.412-.412V237.115a.413.413,0,0,1,.412-.412h50.438a.413.413,0,0,1,.412.412v36.027A.413.413,0,0,1,645.475,273.554Zm-50.026-.825h49.614v-35.2H595.449Z" fill="#c0d6fd"/>
          </g>
          <g id="Group_26218" data-name="Group 26218">
            <path id="Path_71390" data-name="Path 71390" d="M695.913,273.554H645.475a.413.413,0,0,1-.412-.412V237.115a.413.413,0,0,1,.412-.412h50.438a.412.412,0,0,1,.411.412v36.027A.412.412,0,0,1,695.913,273.554Zm-50.026-.825H695.5v-35.2H645.887Z" fill="#c0d6fd"/>
          </g>
        </g>
        <g id="Group_26227" data-name="Group 26227">
          <g id="Group_26220" data-name="Group 26220">
            <path id="Path_71391" data-name="Path 71391" d="M393.322,309.94H342.884a.413.413,0,0,1-.412-.412V273.5a.413.413,0,0,1,.412-.413h50.438a.412.412,0,0,1,.411.413v36.026A.412.412,0,0,1,393.322,309.94Zm-50.026-.824H392.91v-35.2H343.3Z" fill="#c0d6fd"/>
          </g>
          <g id="Group_26221" data-name="Group 26221">
            <path id="Path_71392" data-name="Path 71392" d="M443.759,309.94H393.322a.412.412,0,0,1-.412-.412V273.5a.412.412,0,0,1,.412-.413h50.437a.413.413,0,0,1,.412.413v36.026A.413.413,0,0,1,443.759,309.94Zm-50.026-.824h49.614v-35.2H393.733Z" fill="#c0d6fd"/>
          </g>
          <g id="Group_26222" data-name="Group 26222">
            <path id="Path_71393" data-name="Path 71393" d="M494.2,309.94H443.759a.413.413,0,0,1-.412-.412V273.5a.413.413,0,0,1,.412-.413H494.2a.413.413,0,0,1,.412.413v36.026A.413.413,0,0,1,494.2,309.94Zm-50.026-.824h49.614v-35.2H444.171Z" fill="#c0d6fd"/>
          </g>
          <g id="Group_26223" data-name="Group 26223">
            <path id="Path_71394" data-name="Path 71394" d="M544.635,309.94H494.2a.413.413,0,0,1-.412-.412V273.5a.413.413,0,0,1,.412-.413h50.438a.412.412,0,0,1,.411.413v36.026A.412.412,0,0,1,544.635,309.94Zm-50.026-.824h49.614v-35.2H494.609Z" fill="#c0d6fd"/>
          </g>
          <g id="Group_26224" data-name="Group 26224">
            <path id="Path_71395" data-name="Path 71395" d="M595.037,309.94H544.6a.412.412,0,0,1-.411-.412V273.5a.412.412,0,0,1,.411-.413h50.438a.413.413,0,0,1,.412.413v36.026A.413.413,0,0,1,595.037,309.94Zm-50.026-.824h49.614v-35.2H545.011Z" fill="#c0d6fd"/>
          </g>
          <g id="Group_26225" data-name="Group 26225">
            <path id="Path_71396" data-name="Path 71396" d="M645.475,309.94H595.037a.413.413,0,0,1-.412-.412V273.5a.413.413,0,0,1,.412-.413h50.438a.413.413,0,0,1,.412.413v36.026A.413.413,0,0,1,645.475,309.94Zm-50.026-.824h49.614v-35.2H595.449Z" fill="#c0d6fd"/>
          </g>
          <g id="Group_26226" data-name="Group 26226">
            <path id="Path_71397" data-name="Path 71397" d="M695.913,309.94H645.475a.413.413,0,0,1-.412-.412V273.5a.413.413,0,0,1,.412-.413h50.438a.412.412,0,0,1,.411.413v36.026A.412.412,0,0,1,695.913,309.94Zm-50.026-.824H695.5v-35.2H645.887Z" fill="#c0d6fd"/>
          </g>
        </g>
        <g id="Group_26228" data-name="Group 26228">
          <path id="Path_71398" data-name="Path 71398" d="M393.322,238.033H342.884a.413.413,0,0,1-.412-.412V201.6a.414.414,0,0,1,.412-.413h50.438a.413.413,0,0,1,.411.413v36.026A.412.412,0,0,1,393.322,238.033Zm-50.026-.824H392.91v-35.2H343.3Z" fill="#c0d6fd"/>
        </g>
        <g id="Group_26229" data-name="Group 26229">
          <path id="Path_71399" data-name="Path 71399" d="M443.759,238.033H393.322a.412.412,0,0,1-.412-.412V201.6a.413.413,0,0,1,.412-.413h50.437a.414.414,0,0,1,.412.413v36.026A.413.413,0,0,1,443.759,238.033Zm-50.026-.824h49.614v-35.2H393.733Z" fill="#c0d6fd"/>
        </g>
        <g id="Group_26230" data-name="Group 26230">
          <path id="Path_71400" data-name="Path 71400" d="M544.635,238.033H494.2a.413.413,0,0,1-.412-.412V201.6a.414.414,0,0,1,.412-.413h50.438a.413.413,0,0,1,.411.413v36.026A.412.412,0,0,1,544.635,238.033Zm-50.026-.824h49.614v-35.2H494.609Z" fill="#c0d6fd"/>
        </g>
        <g id="Group_26231" data-name="Group 26231">
          <path id="Path_71401" data-name="Path 71401" d="M595.037,238.033H544.6a.412.412,0,0,1-.411-.412V201.6a.413.413,0,0,1,.411-.413h50.438a.414.414,0,0,1,.412.413v36.026A.413.413,0,0,1,595.037,238.033Zm-50.026-.824h49.614v-35.2H545.011Z" fill="#c0d6fd"/>
        </g>
        <g id="Group_26232" data-name="Group 26232">
          <path id="Path_71402" data-name="Path 71402" d="M645.475,238.033H595.037a.413.413,0,0,1-.412-.412V201.6a.414.414,0,0,1,.412-.413h50.438a.414.414,0,0,1,.412.413v36.026A.413.413,0,0,1,645.475,238.033Zm-50.026-.824h49.614v-35.2H595.449Z" fill="#c0d6fd"/>
        </g>
        <g id="Group_26233" data-name="Group 26233">
          <path id="Path_71403" data-name="Path 71403" d="M695.913,238.033H645.475a.413.413,0,0,1-.412-.412V201.6a.414.414,0,0,1,.412-.413h50.438a.413.413,0,0,1,.411.413v36.026A.412.412,0,0,1,695.913,238.033Zm-50.026-.824H695.5v-35.2H645.887Z" fill="#c0d6fd"/>
        </g>
        <g id="Group_26234" data-name="Group 26234">
          <path id="Path_71686" data-name="Path 71686" d="M1344.614,329.37c-1.635,1.121-3.92,1.969-4.519,2.482-.154.137-2.225,2.217-3.672,3.672a8.4,8.4,0,0,0-2.208,3.877,5.418,5.418,0,0,0-.154,2.816s2.106,1.558,3.629.745l1.378-3.227a9.8,9.8,0,0,1,3.989-.8c2.8-.214,4.939-3.133,6.976-4.776a7.051,7.051,0,0,0,2.465-5.709,7.755,7.755,0,0,0-2.568,1.977,9.759,9.759,0,0,1-5.135,2.405c-.214,0-.77.043-.856-.205-.317-.728,1.267-1.506,1.934-2.174.924-.933,1.07-1.9.762-2.337S1345.769,328.566,1344.614,329.37Z" transform="translate(-859.693 -91.854)" fill="#fab9af"/>
          <rect id="Rectangle_6386" data-name="Rectangle 6386" width="56.77" height="40.549" transform="translate(441.13 198.95)" fill="#c1ddfe"/>
          <path id="Path_71687" data-name="Path 71687" d="M1344.614,329.37c-1.635,1.121-3.92,1.969-4.519,2.482-.154.137-2.225,2.217-3.672,3.672a8.4,8.4,0,0,0-2.208,3.877,5.418,5.418,0,0,0-.154,2.816s2.106,1.558,3.629.745l1.378-3.227a9.8,9.8,0,0,1,3.989-.8c2.8-.214,3.33-6.308,1.738-6.1-.214,0-.77.043-.856-.205-.317-.728,1.267-1.506,1.934-2.174.924-.933,1.07-1.9.762-2.337S1345.769,328.566,1344.614,329.37Z" transform="translate(-859.693 -91.854)" fill="#fab9af"/>
        </g>
        <g id="Group_26235" data-name="Group 26235">
          <rect id="Rectangle_6387" data-name="Rectangle 6387" width="56.77" height="40.549" transform="translate(541.243 235.198)" fill="#ffbdba"/>
          <path id="Path_71607" data-name="Path 71607" d="M758.793,1296.846c-.48-.306-.435-.585-.5-.932a3.637,3.637,0,0,0-1.076-1.811,8,8,0,0,0-1.886-1.377,14.273,14.273,0,0,0-4.488-1.7,7.362,7.362,0,0,1-.848-.188c-.141-.037-.28-.087-.423-.122l-.428-.112c-.286-.076-.573-.166-.863-.239s-.585-.12-.879-.167a17.481,17.481,0,0,0-4.294-.152,21.181,21.181,0,0,0-4.447.943,15.918,15.918,0,0,0-4.062,2.012,23.948,23.948,0,0,0-6.286,6.253,20.6,20.6,0,0,0-2.087,3.959c-.127.352-.279.7-.382,1.057l-.317,1.079c-.083.365-.159.732-.235,1.1l-.056.275-.037.279-.071.557-.065.512-.032.515c-.017.344-.058.686-.058,1.03l-.005,1.031c0,.344.025.686.048,1.029a16.166,16.166,0,0,0,.84,4.022,18.129,18.129,0,0,0,5.071,7.511,17.738,17.738,0,0,0,2.535,2.033,13.5,13.5,0,0,0,3.306,1.462,10.823,10.823,0,0,0,3.583.39,14.985,14.985,0,0,0,6.231-1.909,24.2,24.2,0,0,0,5.178-3.966c.565-.557,1.119-1.133,1.7-1.691.279-.288.548-.585.825-.876.135-.148.279-.29.408-.444l.386-.463a31.866,31.866,0,0,0,6.271-12.081,33.279,33.279,0,0,0,.934-5.105,29.178,29.178,0,0,0,0-5.208,27.836,27.836,0,0,0-10.8-19.326c-.492-.349-1.109-.627-.927-1.277.118-.427.754-.362,1.555.217a19.674,19.674,0,0,1,4.568,4.466,62.393,62.393,0,0,1,4.39,7.18,22.827,22.827,0,0,1,2.509,12.043,37.506,37.506,0,0,1-1.284,7.488,35.265,35.265,0,0,1-2.771,7.018,40.963,40.963,0,0,1-2.881,4.645,36.443,36.443,0,0,1-3.564,4.155,26.911,26.911,0,0,1-2.19,1.952,23.317,23.317,0,0,1-2.4,1.71c-.415.268-.851.5-1.284.747-.444.222-.884.457-1.346.648-.453.211-.927.376-1.4.554-.48.149-.959.313-1.454.422a16.211,16.211,0,0,1-4.322.488,13.079,13.079,0,0,1-4.339-.91,9.217,9.217,0,0,1-2-1.126c-.628-.437-1.2-.94-1.782-1.411a19.635,19.635,0,0,1-4.363-5.115,18.582,18.582,0,0,1-2.351-6.3,16.324,16.324,0,0,1-.216-3.806c.007-.158.008-.316.02-.473l.05-.47.1-.939.167-.928.084-.463c.033-.153.075-.3.112-.457l.23-.91c.086-.3.19-.6.284-.893.176-.6.43-1.171.654-1.751.113-.29.26-.565.388-.848s.253-.568.41-.836c.3-.544.584-1.1.926-1.613a27.057,27.057,0,0,1,2.13-2.93c.8-.909,1.6-1.823,2.482-2.681a14.827,14.827,0,0,1,4.938-3.018,21.424,21.424,0,0,1,11.278-1.408,21.944,21.944,0,0,1,3.214,1.019,24.041,24.041,0,0,1,4.051,1.712A14.649,14.649,0,0,1,757,1293.1a6.028,6.028,0,0,1,1.478,1.63A2.729,2.729,0,0,1,758.793,1296.846Z" transform="translate(-183.289 -1059.271)" fill="#e7639c" stroke="#e7639c" stroke-width="2" fill-rule="evenodd"/>
        </g>
        <g id="Group_26236" data-name="Group 26236">
          <path id="Path_71404" data-name="Path 71404" d="M350.408,173.069h.6a1.757,1.757,0,0,0,.575-.086,1.157,1.157,0,0,0,.41-.241.975.975,0,0,0,.247-.36,1.237,1.237,0,0,0,.082-.453,1.2,1.2,0,0,0-.288-.87,1.164,1.164,0,0,0-.876-.3,1.439,1.439,0,0,0-.49.08,1.07,1.07,0,0,0-.379.228,1.025,1.025,0,0,0-.244.361,1.231,1.231,0,0,0-.086.471h-.845a1.765,1.765,0,0,1,.146-.715,1.717,1.717,0,0,1,.416-.582,1.989,1.989,0,0,1,.645-.393,2.348,2.348,0,0,1,.837-.144,2.645,2.645,0,0,1,.821.122,1.745,1.745,0,0,1,.632.356,1.6,1.6,0,0,1,.409.586,2.124,2.124,0,0,1,.146.817,1.365,1.365,0,0,1-.062.392,1.614,1.614,0,0,1-.187.4,1.65,1.65,0,0,1-.324.367,1.732,1.732,0,0,1-.472.286,1.8,1.8,0,0,1,.55.275,1.519,1.519,0,0,1,.353.381,1.421,1.421,0,0,1,.187.443,1.972,1.972,0,0,1,.055.456,2.039,2.039,0,0,1-.159.828,1.717,1.717,0,0,1-.443.609,1.961,1.961,0,0,1-.666.376,2.552,2.552,0,0,1-.835.131,2.691,2.691,0,0,1-.817-.121,2.026,2.026,0,0,1-.67-.355,1.677,1.677,0,0,1-.454-.581,1.767,1.767,0,0,1-.167-.786h.849a1.232,1.232,0,0,0,.086.472,1.032,1.032,0,0,0,.251.365,1.116,1.116,0,0,0,.4.235,1.589,1.589,0,0,0,.525.082,1.716,1.716,0,0,0,.525-.075.987.987,0,0,0,.647-.618,1.549,1.549,0,0,0,.087-.544,1.317,1.317,0,0,0-.1-.537,1,1,0,0,0-.285-.378,1.281,1.281,0,0,0-.445-.221,2.192,2.192,0,0,0-.584-.072h-.6Z" fill="#c1ddfe"/>
          <path id="Path_71405" data-name="Path 71405" d="M357.2,176.8h-.849v-5.625l-1.7.625v-.767l2.417-.908h.133Z" fill="#c1ddfe"/>
        </g>
        <g id="Group_26237" data-name="Group 26237">
          <path id="Path_71406" data-name="Path 71406" d="M403.5,176.8h-.849v-5.625l-1.7.625v-.767l2.418-.908h.132Z" fill="#545ed6"/>
        </g>
        <g id="Group_26238" data-name="Group 26238">
          <path id="Path_71407" data-name="Path 71407" d="M453.9,176.8h-4.352v-.607l2.176-2.418q.3-.333.5-.588a3.767,3.767,0,0,0,.315-.468,1.731,1.731,0,0,0,.162-.4,1.591,1.591,0,0,0,.045-.376,1.361,1.361,0,0,0-.078-.464,1.1,1.1,0,0,0-.223-.376,1.054,1.054,0,0,0-.36-.253,1.215,1.215,0,0,0-.493-.094,1.539,1.539,0,0,0-.586.1,1.115,1.115,0,0,0-.413.278,1.153,1.153,0,0,0-.247.427,1.769,1.769,0,0,0-.081.55h-.845a2.258,2.258,0,0,1,.14-.795,1.827,1.827,0,0,1,.412-.652,1.964,1.964,0,0,1,.68-.44,2.525,2.525,0,0,1,.94-.163,2.589,2.589,0,0,1,.842.129,1.767,1.767,0,0,1,.629.362,1.57,1.57,0,0,1,.395.564,1.869,1.869,0,0,1,.136.725,1.832,1.832,0,0,1-.1.589,3.23,3.23,0,0,1-.269.591,4.775,4.775,0,0,1-.4.583q-.228.291-.479.568l-1.784,1.935H453.9Z" fill="#545ed6"/>
        </g>
        <g id="Group_26239" data-name="Group 26239">
          <path id="Path_71408" data-name="Path 71408" d="M499.679,173.069h.6a1.751,1.751,0,0,0,.574-.086,1.152,1.152,0,0,0,.411-.241.975.975,0,0,0,.247-.36,1.237,1.237,0,0,0,.082-.453,1.2,1.2,0,0,0-.288-.87,1.166,1.166,0,0,0-.876-.3,1.439,1.439,0,0,0-.49.08,1.07,1.07,0,0,0-.379.228,1.025,1.025,0,0,0-.244.361,1.231,1.231,0,0,0-.087.471h-.844a1.765,1.765,0,0,1,.146-.715,1.728,1.728,0,0,1,.415-.582,2,2,0,0,1,.646-.393,2.348,2.348,0,0,1,.837-.144,2.645,2.645,0,0,1,.821.122,1.745,1.745,0,0,1,.632.356,1.585,1.585,0,0,1,.408.586,2.105,2.105,0,0,1,.147.817,1.365,1.365,0,0,1-.062.392,1.615,1.615,0,0,1-.187.4,1.676,1.676,0,0,1-.324.367,1.748,1.748,0,0,1-.472.286,1.785,1.785,0,0,1,.549.275,1.505,1.505,0,0,1,.354.381,1.444,1.444,0,0,1,.187.443,1.971,1.971,0,0,1,.055.456,2.039,2.039,0,0,1-.16.828,1.7,1.7,0,0,1-.442.609,1.961,1.961,0,0,1-.666.376,2.552,2.552,0,0,1-.835.131,2.691,2.691,0,0,1-.817-.121,2.041,2.041,0,0,1-.671-.355,1.689,1.689,0,0,1-.454-.581,1.78,1.78,0,0,1-.166-.786h.849a1.232,1.232,0,0,0,.086.472,1.019,1.019,0,0,0,.251.365,1.116,1.116,0,0,0,.4.235,1.589,1.589,0,0,0,.525.082,1.716,1.716,0,0,0,.525-.075,1.034,1.034,0,0,0,.4-.23,1.018,1.018,0,0,0,.251-.388,1.549,1.549,0,0,0,.087-.544,1.334,1.334,0,0,0-.1-.537.989.989,0,0,0-.286-.378,1.264,1.264,0,0,0-.445-.221,2.184,2.184,0,0,0-.583-.072h-.6Z" fill="#545ed6"/>
        </g>
        <g id="Group_26240" data-name="Group 26240">
          <path id="Path_71409" data-name="Path 71409" d="M554.733,174.569h.922v.69h-.922V176.8h-.849v-1.542H550.86v-.5l2.974-4.6h.9Zm-2.916,0h2.067v-3.257l-.1.183Z" fill="#545ed6"/>
        </g>
        <g id="Group_26241" data-name="Group 26241">
          <path id="Path_71410" data-name="Path 71410" d="M600.61,173.47l.338-3.312h3.4v.78h-2.687l-.2,1.811a2.49,2.49,0,0,1,.459-.2,2.126,2.126,0,0,1,.65-.091,2.086,2.086,0,0,1,.823.157,1.713,1.713,0,0,1,.623.448,2,2,0,0,1,.392.7,3.1,3.1,0,0,1,.007,1.8,1.938,1.938,0,0,1-.39.7,1.763,1.763,0,0,1-.655.46,2.355,2.355,0,0,1-.928.167,2.527,2.527,0,0,1-.76-.112,1.872,1.872,0,0,1-.636-.339,1.777,1.777,0,0,1-.456-.576,2.167,2.167,0,0,1-.219-.812h.8a1.344,1.344,0,0,0,.406.861,1.263,1.263,0,0,0,.867.289,1.285,1.285,0,0,0,.534-.1,1.071,1.071,0,0,0,.394-.3,1.339,1.339,0,0,0,.246-.477,2.147,2.147,0,0,0,.085-.627,1.868,1.868,0,0,0-.087-.579,1.342,1.342,0,0,0-.255-.468,1.219,1.219,0,0,0-.417-.313,1.352,1.352,0,0,0-.568-.113,1.977,1.977,0,0,0-.37.029,1.3,1.3,0,0,0-.278.084,1.107,1.107,0,0,0-.226.135c-.069.053-.141.112-.217.175Z" fill="#545ed6"/>
        </g>
        <g id="Group_26242" data-name="Group 26242">
          <path id="Path_71411" data-name="Path 71411" d="M654.685,170.154v.716h-.078a2.62,2.62,0,0,0-1.031.182,1.972,1.972,0,0,0-.7.486,2.088,2.088,0,0,0-.415.7,3.205,3.205,0,0,0-.178.812,1.633,1.633,0,0,1,.641-.459,2.172,2.172,0,0,1,.792-.143,1.8,1.8,0,0,1,.855.19,1.743,1.743,0,0,1,.591.5,2.109,2.109,0,0,1,.344.7,2.951,2.951,0,0,1,.112.8,2.9,2.9,0,0,1-.132.887,2.061,2.061,0,0,1-.393.717,1.839,1.839,0,0,1-.643.478,2.116,2.116,0,0,1-.89.176,1.886,1.886,0,0,1-.939-.224,2.064,2.064,0,0,1-.669-.586,2.591,2.591,0,0,1-.4-.819,3.279,3.279,0,0,1-.132-.917v-.4a7.587,7.587,0,0,1,.057-.928,4.525,4.525,0,0,1,.2-.885,3.463,3.463,0,0,1,.376-.785,2.443,2.443,0,0,1,.589-.629,2.709,2.709,0,0,1,.84-.418,3.815,3.815,0,0,1,1.124-.15Zm-1.109,2.992a1.3,1.3,0,0,0-.428.071,1.4,1.4,0,0,0-.377.194,1.5,1.5,0,0,0-.3.289,1.3,1.3,0,0,0-.2.359v.31a2.592,2.592,0,0,0,.108.786,1.783,1.783,0,0,0,.287.572,1.258,1.258,0,0,0,.413.349,1.063,1.063,0,0,0,.483.118,1.166,1.166,0,0,0,.521-.112,1.087,1.087,0,0,0,.385-.315,1.448,1.448,0,0,0,.24-.481,2.259,2.259,0,0,0,.006-1.184,1.519,1.519,0,0,0-.226-.488,1.141,1.141,0,0,0-.378-.34A1.076,1.076,0,0,0,653.576,173.146Z" fill="#545ed6"/>
        </g>
        <g id="Group_26243" data-name="Group 26243">
          <path id="Path_71412" data-name="Path 71412" d="M353.469,207.078l-2.751,6.168h-.885l2.742-5.949h-3.6V206.6h4.489Z" fill="#545ed6"/>
        </g>
        <g id="Group_26244" data-name="Group 26244">
          <path id="Path_71413" data-name="Path 71413" d="M404.756,208.337a1.539,1.539,0,0,1-.262.885,1.77,1.77,0,0,1-.71.607,1.992,1.992,0,0,1,.463.274,1.788,1.788,0,0,1,.356.372,1.67,1.67,0,0,1,.229.454,1.7,1.7,0,0,1,.08.524,1.93,1.93,0,0,1-.162.808,1.686,1.686,0,0,1-.448.591,1.942,1.942,0,0,1-.67.362,2.867,2.867,0,0,1-1.668,0,1.915,1.915,0,0,1-.67-.362,1.691,1.691,0,0,1-.445-.591,1.914,1.914,0,0,1-.162-.808,1.725,1.725,0,0,1,.078-.524,1.689,1.689,0,0,1,.221-.456,1.649,1.649,0,0,1,.349-.374,2.01,2.01,0,0,1,.46-.275,1.731,1.731,0,0,1-.7-.606,1.559,1.559,0,0,1-.256-.881,1.931,1.931,0,0,1,.146-.773,1.6,1.6,0,0,1,.406-.572,1.784,1.784,0,0,1,.621-.356,2.537,2.537,0,0,1,1.567,0,1.817,1.817,0,0,1,.62.356,1.581,1.581,0,0,1,.408.572A1.948,1.948,0,0,1,404.756,208.337Zm-.689,3.1a1.362,1.362,0,0,0-.093-.511,1.151,1.151,0,0,0-.666-.657,1.526,1.526,0,0,0-1.038,0,1.128,1.128,0,0,0-.4.258,1.143,1.143,0,0,0-.253.4,1.536,1.536,0,0,0,0,1.022,1.051,1.051,0,0,0,.251.381,1.082,1.082,0,0,0,.4.239,1.6,1.6,0,0,0,.532.083,1.579,1.579,0,0,0,.527-.083,1.045,1.045,0,0,0,.652-.62A1.362,1.362,0,0,0,404.067,211.435Zm-.154-3.084a1.3,1.3,0,0,0-.08-.456,1.064,1.064,0,0,0-.229-.363,1.077,1.077,0,0,0-.353-.24,1.167,1.167,0,0,0-.452-.086,1.266,1.266,0,0,0-.452.079,1.03,1.03,0,0,0-.353.229.994.994,0,0,0-.228.361,1.317,1.317,0,0,0-.08.476,1.288,1.288,0,0,0,.08.466,1.02,1.02,0,0,0,.225.358,1,1,0,0,0,.352.228,1.34,1.34,0,0,0,.912,0,1,1,0,0,0,.352-.228,1.036,1.036,0,0,0,.226-.358A1.332,1.332,0,0,0,403.913,208.351Z" fill="#545ed6"/>
        </g>
        <g id="Group_26245" data-name="Group 26245">
          <path id="Path_71414" data-name="Path 71414" d="M450.469,212.539a2.928,2.928,0,0,0,1.126-.185,1.717,1.717,0,0,0,1.063-1.2,3.892,3.892,0,0,0,.123-.829,2.07,2.07,0,0,1-.631.507,1.711,1.711,0,0,1-.8.192,1.712,1.712,0,0,1-1.44-.7,2.192,2.192,0,0,1-.342-.709,3,3,0,0,1,.021-1.7,2.142,2.142,0,0,1,.39-.732,1.814,1.814,0,0,1,.643-.493,2.071,2.071,0,0,1,.892-.181,1.863,1.863,0,0,1,1.628.84,2.645,2.645,0,0,1,.375.859,4.182,4.182,0,0,1,.118.989v.306c0,.288-.014.581-.043.877a4.8,4.8,0,0,1-.164.863,3.386,3.386,0,0,1-.338.782,2.26,2.26,0,0,1-.568.637,2.678,2.678,0,0,1-.855.428,4.024,4.024,0,0,1-1.193.158h-.082v-.712Zm1.012-2.213a1.269,1.269,0,0,0,.416-.068,1.405,1.405,0,0,0,.369-.191,1.62,1.62,0,0,0,.3-.288,1.453,1.453,0,0,0,.217-.356v-.338a2.779,2.779,0,0,0-.105-.8,1.889,1.889,0,0,0-.28-.586,1.218,1.218,0,0,0-.406-.36,1,1,0,0,0-.482-.124,1.118,1.118,0,0,0-.524.119,1.143,1.143,0,0,0-.386.326,1.473,1.473,0,0,0-.239.49,2.195,2.195,0,0,0-.082.616,2.272,2.272,0,0,0,.073.578,1.565,1.565,0,0,0,.221.5,1.143,1.143,0,0,0,.374.352A1.026,1.026,0,0,0,451.481,210.326Z" fill="#fff"/>
        </g>
        <g id="Group_26246" data-name="Group 26246">
          <path id="Path_71415" data-name="Path 71415" d="M501.226,213.246h-.849v-5.625l-1.7.626v-.768l2.418-.908h.132Z" fill="#545ed6"/>
          <path id="Path_71416" data-name="Path 71416" d="M507.864,210.414a5.53,5.53,0,0,1-.146,1.374,2.455,2.455,0,0,1-.417.9,1.555,1.555,0,0,1-.658.495,2.567,2.567,0,0,1-1.735,0,1.566,1.566,0,0,1-.662-.495,2.475,2.475,0,0,1-.424-.9,5.327,5.327,0,0,1-.151-1.374V209.4a5.416,5.416,0,0,1,.148-1.369,2.367,2.367,0,0,1,.423-.889,1.527,1.527,0,0,1,.659-.483,2.409,2.409,0,0,1,.864-.147,2.446,2.446,0,0,1,.872.147,1.527,1.527,0,0,1,.661.483,2.351,2.351,0,0,1,.42.889,5.471,5.471,0,0,1,.146,1.369Zm-.844-1.155a4.89,4.89,0,0,0-.08-.954,1.818,1.818,0,0,0-.239-.636.972.972,0,0,0-.395-.354,1.269,1.269,0,0,0-.541-.109,1.255,1.255,0,0,0-.536.109.952.952,0,0,0-.392.354,1.879,1.879,0,0,0-.24.636,4.8,4.8,0,0,0-.082.954v1.286a4.89,4.89,0,0,0,.082.957,1.974,1.974,0,0,0,.244.654,1.024,1.024,0,0,0,.4.374,1.282,1.282,0,0,0,1.079,0,.982.982,0,0,0,.39-.374,1.953,1.953,0,0,0,.235-.654,5.079,5.079,0,0,0,.078-.957Z" fill="#545ed6"/>
        </g>
        <g id="Group_26247" data-name="Group 26247">
          <path id="Path_71417" data-name="Path 71417" d="M553.944,213.246h-.849v-5.625l-1.7.626v-.768l2.417-.908h.133Z" fill="#545ed6"/>
          <path id="Path_71418" data-name="Path 71418" d="M559.19,213.246h-.849v-5.625l-1.7.626v-.768l2.418-.908h.132Z" fill="#545ed6"/>
        </g>
        <g id="Group_26248" data-name="Group 26248">
          <path id="Path_71419" data-name="Path 71419" d="M603,213.246h-.849v-5.625l-1.7.626v-.768l2.418-.908H603Z" fill="#545ed6"/>
          <path id="Path_71420" data-name="Path 71420" d="M609.821,213.246h-4.352v-.606l2.176-2.418q.3-.335.5-.589a3.708,3.708,0,0,0,.314-.467,1.7,1.7,0,0,0,.162-.4,1.593,1.593,0,0,0,.046-.377,1.356,1.356,0,0,0-.078-.463,1.091,1.091,0,0,0-.223-.376,1.061,1.061,0,0,0-.361-.254,1.227,1.227,0,0,0-.492-.093,1.561,1.561,0,0,0-.587.1,1.125,1.125,0,0,0-.413.279,1.16,1.16,0,0,0-.246.426,1.738,1.738,0,0,0-.082.55h-.844a2.253,2.253,0,0,1,.139-.794,1.848,1.848,0,0,1,.413-.653,1.962,1.962,0,0,1,.68-.439,2.5,2.5,0,0,1,.94-.163,2.556,2.556,0,0,1,.841.129,1.757,1.757,0,0,1,.63.362,1.567,1.567,0,0,1,.394.564,1.848,1.848,0,0,1,.137.725,1.82,1.82,0,0,1-.1.588,3.367,3.367,0,0,1-.269.591,4.821,4.821,0,0,1-.4.584q-.228.291-.479.568l-1.784,1.934h3.335Z" fill="#545ed6"/>
        </g>
        <g id="Group_26249" data-name="Group 26249">
          <path id="Path_71421" data-name="Path 71421" d="M654.151,213.246H653.3v-5.625l-1.7.626v-.768l2.418-.908h.132Z" fill="#545ed6"/>
          <path id="Path_71422" data-name="Path 71422" d="M657.851,209.515h.6a1.751,1.751,0,0,0,.575-.087,1.169,1.169,0,0,0,.411-.24.981.981,0,0,0,.246-.36,1.242,1.242,0,0,0,.082-.454,1.206,1.206,0,0,0-.287-.869,1.162,1.162,0,0,0-.876-.3,1.47,1.47,0,0,0-.491.079,1.105,1.105,0,0,0-.379.229,1.013,1.013,0,0,0-.243.361,1.223,1.223,0,0,0-.087.471h-.844a1.77,1.77,0,0,1,.146-.716,1.707,1.707,0,0,1,.415-.581,1.977,1.977,0,0,1,.646-.393,2.318,2.318,0,0,1,.837-.144,2.62,2.62,0,0,1,.821.122,1.738,1.738,0,0,1,.632.356,1.589,1.589,0,0,1,.408.586,2.1,2.1,0,0,1,.146.816,1.338,1.338,0,0,1-.062.393,1.6,1.6,0,0,1-.187.4,1.69,1.69,0,0,1-.323.367,1.735,1.735,0,0,1-.472.285,1.8,1.8,0,0,1,.549.276,1.506,1.506,0,0,1,.354.381,1.468,1.468,0,0,1,.187.443,2.011,2.011,0,0,1,.054.456,2.041,2.041,0,0,1-.159.828,1.706,1.706,0,0,1-.443.609,1.952,1.952,0,0,1-.666.376,2.547,2.547,0,0,1-.835.131,2.68,2.68,0,0,1-.816-.121,2.016,2.016,0,0,1-.671-.356,1.683,1.683,0,0,1-.454-.58,1.784,1.784,0,0,1-.166-.786h.848a1.228,1.228,0,0,0,.087.471,1,1,0,0,0,.251.365,1.093,1.093,0,0,0,.4.235,1.561,1.561,0,0,0,.524.083,1.707,1.707,0,0,0,.525-.075,1.04,1.04,0,0,0,.4-.231,1.015,1.015,0,0,0,.251-.388,1.548,1.548,0,0,0,.086-.543,1.326,1.326,0,0,0-.1-.538.994.994,0,0,0-.285-.377,1.247,1.247,0,0,0-.445-.221,2.186,2.186,0,0,0-.584-.072h-.6Z" fill="#545ed6"/>
        </g>
        <g id="Group_26250" data-name="Group 26250">
          <path id="Path_71423" data-name="Path 71423" d="M351.954,249.11h-.849v-5.625l-1.7.625v-.767l2.418-.908h.132Z" fill="#545ed6"/>
          <path id="Path_71424" data-name="Path 71424" d="M357.99,246.878h.922v.69h-.922v1.542h-.849v-1.542h-3.024v-.5l2.974-4.6h.9Zm-2.916,0h2.067v-3.257l-.1.183Z" fill="#545ed6"/>
        </g>
        <g id="Group_26251" data-name="Group 26251">
          <path id="Path_71425" data-name="Path 71425" d="M403.5,249.11h-.849v-5.625l-1.7.625v-.767l2.418-.908h.132Z" fill="#545ed6"/>
          <path id="Path_71426" data-name="Path 71426" d="M406.362,245.779l.338-3.312h3.4v.78h-2.687l-.2,1.811a2.425,2.425,0,0,1,.459-.2,2.13,2.13,0,0,1,.65-.091,2.073,2.073,0,0,1,.824.158,1.7,1.7,0,0,1,.622.447,2.013,2.013,0,0,1,.393.7,3.112,3.112,0,0,1,.006,1.8,1.937,1.937,0,0,1-.389.7,1.775,1.775,0,0,1-.656.46,2.355,2.355,0,0,1-.928.167,2.547,2.547,0,0,1-.759-.111,1.888,1.888,0,0,1-.637-.34,1.81,1.81,0,0,1-.456-.575,2.177,2.177,0,0,1-.219-.813h.8a1.341,1.341,0,0,0,.407.861,1.259,1.259,0,0,0,.866.289,1.285,1.285,0,0,0,.534-.1,1.07,1.07,0,0,0,.394-.3,1.353,1.353,0,0,0,.247-.476,2.189,2.189,0,0,0,.084-.628,1.868,1.868,0,0,0-.086-.579,1.359,1.359,0,0,0-.256-.468,1.2,1.2,0,0,0-.417-.313,1.349,1.349,0,0,0-.568-.113,1.983,1.983,0,0,0-.37.029,1.317,1.317,0,0,0-.278.084,1.109,1.109,0,0,0-.226.135c-.068.054-.141.112-.217.175Z" fill="#545ed6"/>
        </g>
        <g id="Group_26252" data-name="Group 26252">
          <path id="Path_71427" data-name="Path 71427" d="M452.321,249.11h-.849v-5.625l-1.7.625v-.767l2.418-.908h.132Z" fill="#545ed6"/>
          <path id="Path_71428" data-name="Path 71428" d="M458.1,242.463v.716h-.078a2.611,2.611,0,0,0-1.03.182,1.965,1.965,0,0,0-.7.487,2.058,2.058,0,0,0-.415.695,3.161,3.161,0,0,0-.178.812,1.626,1.626,0,0,1,.641-.459,2.163,2.163,0,0,1,.791-.143,1.8,1.8,0,0,1,.855.19,1.743,1.743,0,0,1,.591.5,2.1,2.1,0,0,1,.344.7,2.973,2.973,0,0,1-.02,1.691,2.05,2.05,0,0,1-.392.717,1.845,1.845,0,0,1-.643.478,2.119,2.119,0,0,1-.89.176,1.889,1.889,0,0,1-.94-.224,2.071,2.071,0,0,1-.668-.586,2.57,2.57,0,0,1-.4-.819,3.24,3.24,0,0,1-.133-.917v-.4a7.593,7.593,0,0,1,.057-.928,4.452,4.452,0,0,1,.2-.885,3.394,3.394,0,0,1,.376-.784,2.431,2.431,0,0,1,.589-.63,2.692,2.692,0,0,1,.839-.418,3.819,3.819,0,0,1,1.124-.15Zm-1.108,2.993a1.308,1.308,0,0,0-.429.07,1.416,1.416,0,0,0-.377.194,1.477,1.477,0,0,0-.3.29,1.282,1.282,0,0,0-.2.357v.311a2.6,2.6,0,0,0,.107.787,1.808,1.808,0,0,0,.287.571,1.258,1.258,0,0,0,.413.349,1.067,1.067,0,0,0,.484.118,1.162,1.162,0,0,0,.52-.112,1.077,1.077,0,0,0,.385-.315,1.447,1.447,0,0,0,.24-.481,2.145,2.145,0,0,0,.082-.611,2.176,2.176,0,0,0-.075-.573,1.541,1.541,0,0,0-.226-.488,1.136,1.136,0,0,0-.379-.34A1.075,1.075,0,0,0,456.993,245.456Z" fill="#545ed6"/>
        </g>
        <g id="Group_26253" data-name="Group 26253">
          <path id="Path_71429" data-name="Path 71429" d="M501.226,249.11h-.849v-5.625l-1.7.625v-.767l2.418-.908h.132Z" fill="#545ed6"/>
          <path id="Path_71430" data-name="Path 71430" d="M507.987,242.942l-2.751,6.168h-.885l2.742-5.949h-3.6v-.694h4.489Z" fill="#545ed6"/>
        </g>
        <g id="Group_26254" data-name="Group 26254">
          <path id="Path_71431" data-name="Path 71431" d="M553.946,254.508h-1.534V244.334l-3.078,1.13v-1.387l4.373-1.642h.239Z" transform="translate(0 0.049)" fill="#fff" stroke="#fff" stroke-width="1"/>
          <path id="Path_71432" data-name="Path 71432" d="M561.675,245.676a2.783,2.783,0,0,1-.474,1.6,3.217,3.217,0,0,1-1.284,1.1,3.6,3.6,0,0,1,.837.494,3.278,3.278,0,0,1,.644.673,3.021,3.021,0,0,1,.414.821,3.087,3.087,0,0,1,.145.95,3.476,3.476,0,0,1-.293,1.46,3.036,3.036,0,0,1-.81,1.069,3.546,3.546,0,0,1-1.212.657,5.225,5.225,0,0,1-3.017,0,3.5,3.5,0,0,1-1.212-.657,3.039,3.039,0,0,1-.8-1.069,3.446,3.446,0,0,1-.293-1.46,3.139,3.139,0,0,1,.141-.95,3.085,3.085,0,0,1,1.031-1.5,3.632,3.632,0,0,1,.832-.5,3.151,3.151,0,0,1-1.262-1.1,2.832,2.832,0,0,1-.461-1.593,3.5,3.5,0,0,1,.264-1.4,2.911,2.911,0,0,1,.734-1.035,3.256,3.256,0,0,1,1.123-.644,4.589,4.589,0,0,1,2.834,0,3.316,3.316,0,0,1,1.121.644,2.876,2.876,0,0,1,.738,1.035A3.53,3.53,0,0,1,561.675,245.676Zm-1.244,5.6a2.467,2.467,0,0,0-.17-.924,2.049,2.049,0,0,0-.476-.722,2.107,2.107,0,0,0-.729-.468,2.788,2.788,0,0,0-1.877,0,2.017,2.017,0,0,0-1.176,1.19A2.776,2.776,0,0,0,556,252.2a1.933,1.933,0,0,0,.454.689,1.981,1.981,0,0,0,.722.432,2.945,2.945,0,0,0,.962.148,2.913,2.913,0,0,0,.953-.148,1.89,1.89,0,0,0,1.179-1.121A2.463,2.463,0,0,0,560.431,251.281Zm-.28-5.578a2.363,2.363,0,0,0-.145-.827,1.94,1.94,0,0,0-.414-.657,1.917,1.917,0,0,0-.638-.432,2.078,2.078,0,0,0-.818-.157,2.249,2.249,0,0,0-.817.145,1.818,1.818,0,0,0-.639.412,1.8,1.8,0,0,0-.412.653,2.4,2.4,0,0,0-.145.863,2.32,2.32,0,0,0,.145.841,1.827,1.827,0,0,0,.407.647,1.793,1.793,0,0,0,.637.412,2.423,2.423,0,0,0,1.649,0,1.793,1.793,0,0,0,.637-.412,1.857,1.857,0,0,0,.409-.647A2.4,2.4,0,0,0,560.151,245.7Z" transform="translate(4.028 0)" fill="#fff" stroke="#fff" stroke-width="1"/>
        </g>
        <g id="Group_26255" data-name="Group 26255">
          <path id="Path_71433" data-name="Path 71433" d="M603,249.11h-.849v-5.625l-1.7.625v-.767l2.418-.908H603Z" fill="#545ed6"/>
          <path id="Path_71434" data-name="Path 71434" d="M606.39,248.4a2.952,2.952,0,0,0,1.127-.185,1.727,1.727,0,0,0,1.063-1.2,3.885,3.885,0,0,0,.123-.829,2.042,2.042,0,0,1-.631.507,1.715,1.715,0,0,1-.806.192,1.711,1.711,0,0,1-1.439-.7,2.17,2.17,0,0,1-.342-.709,3.02,3.02,0,0,1,.02-1.7,2.169,2.169,0,0,1,.39-.732,1.826,1.826,0,0,1,.644-.493,2.086,2.086,0,0,1,.892-.181,1.917,1.917,0,0,1,.971.232,1.945,1.945,0,0,1,.657.608,2.64,2.64,0,0,1,.374.86,4.122,4.122,0,0,1,.119.988v.306c0,.289-.015.581-.043.878a4.837,4.837,0,0,1-.165.863,3.361,3.361,0,0,1-.337.782,2.272,2.272,0,0,1-.568.636,2.716,2.716,0,0,1-.856.429,4.052,4.052,0,0,1-1.193.158h-.082V248.4Zm1.013-2.214a1.267,1.267,0,0,0,.415-.068,1.367,1.367,0,0,0,.37-.191,1.62,1.62,0,0,0,.3-.288,1.478,1.478,0,0,0,.217-.355v-.338a2.789,2.789,0,0,0-.1-.8,1.923,1.923,0,0,0-.28-.586,1.232,1.232,0,0,0-.407-.36,1.008,1.008,0,0,0-.481-.124,1.095,1.095,0,0,0-.91.446,1.485,1.485,0,0,0-.24.49,2.2,2.2,0,0,0-.082.616,2.27,2.27,0,0,0,.073.577,1.6,1.6,0,0,0,.221.5,1.154,1.154,0,0,0,.374.352A1.037,1.037,0,0,0,607.4,246.189Z" fill="#545ed6"/>
        </g>
        <g id="Group_26256" data-name="Group 26256">
          <path id="Path_71435" data-name="Path 71435" d="M655.729,249.11h-4.352V248.5l2.176-2.418q.3-.333.5-.588a3.766,3.766,0,0,0,.315-.468,1.73,1.73,0,0,0,.162-.4,1.587,1.587,0,0,0,.045-.376,1.361,1.361,0,0,0-.078-.464,1.111,1.111,0,0,0-.223-.376,1.045,1.045,0,0,0-.36-.253,1.211,1.211,0,0,0-.493-.094,1.539,1.539,0,0,0-.586.1,1.123,1.123,0,0,0-.413.278,1.137,1.137,0,0,0-.246.427,1.738,1.738,0,0,0-.082.55h-.844a2.258,2.258,0,0,1,.139-.795,1.817,1.817,0,0,1,.413-.652,1.95,1.95,0,0,1,.679-.44,2.525,2.525,0,0,1,.94-.163,2.589,2.589,0,0,1,.842.129,1.759,1.759,0,0,1,.629.362,1.57,1.57,0,0,1,.395.564,1.873,1.873,0,0,1,.137.725,1.847,1.847,0,0,1-.1.588,3.28,3.28,0,0,1-.27.592,4.772,4.772,0,0,1-.4.583q-.227.291-.479.568l-1.784,1.935h3.335Z" fill="#545ed6"/>
          <path id="Path_71436" data-name="Path 71436" d="M660.789,246.277a5.491,5.491,0,0,1-.146,1.375,2.464,2.464,0,0,1-.417.9,1.547,1.547,0,0,1-.657.494,2.57,2.57,0,0,1-1.736,0,1.555,1.555,0,0,1-.662-.494,2.483,2.483,0,0,1-.424-.9,5.334,5.334,0,0,1-.151-1.375v-1.014a5.4,5.4,0,0,1,.148-1.368,2.36,2.36,0,0,1,.423-.889,1.538,1.538,0,0,1,.659-.484,2.431,2.431,0,0,1,.864-.147,2.469,2.469,0,0,1,.872.147,1.538,1.538,0,0,1,.661.484,2.344,2.344,0,0,1,.42.889,5.41,5.41,0,0,1,.146,1.368Zm-.844-1.154a4.906,4.906,0,0,0-.08-.955,1.82,1.82,0,0,0-.239-.635.952.952,0,0,0-.395-.354,1.373,1.373,0,0,0-1.077,0,.939.939,0,0,0-.392.354,1.881,1.881,0,0,0-.24.635,4.821,4.821,0,0,0-.082.955v1.286a4.874,4.874,0,0,0,.082.956,1.95,1.95,0,0,0,.245.655,1.022,1.022,0,0,0,.4.374,1.292,1.292,0,0,0,1.079,0,.989.989,0,0,0,.39-.374,1.952,1.952,0,0,0,.235-.655,5.06,5.06,0,0,0,.078-.956Z" fill="#545ed6"/>
        </g>
        <g id="Group_26257" data-name="Group 26257">
          <path id="Path_71437" data-name="Path 71437" d="M353.532,286.437H349.18v-.606l2.176-2.419q.3-.333.5-.588a3.836,3.836,0,0,0,.315-.467,1.737,1.737,0,0,0,.162-.4,1.579,1.579,0,0,0,.045-.376,1.38,1.38,0,0,0-.077-.463,1.11,1.11,0,0,0-.224-.376,1.047,1.047,0,0,0-.36-.254,1.229,1.229,0,0,0-.493-.093,1.559,1.559,0,0,0-.586.1,1.125,1.125,0,0,0-.413.279,1.147,1.147,0,0,0-.246.426,1.74,1.74,0,0,0-.082.55h-.844a2.252,2.252,0,0,1,.139-.794,1.812,1.812,0,0,1,.413-.653,1.948,1.948,0,0,1,.679-.439,2.5,2.5,0,0,1,.94-.163,2.563,2.563,0,0,1,.842.129,1.744,1.744,0,0,1,.629.362,1.561,1.561,0,0,1,.395.564,1.889,1.889,0,0,1,.037,1.313,3.3,3.3,0,0,1-.27.591,4.862,4.862,0,0,1-.4.584q-.227.291-.479.568l-1.784,1.934h3.335Z" fill="#545ed6"/>
          <path id="Path_71438" data-name="Path 71438" d="M357.2,286.437h-.849v-5.625l-1.7.626v-.768l2.417-.908h.133Z" fill="#545ed6"/>
        </g>
        <g id="Group_26258" data-name="Group 26258">
          <path id="Path_71439" data-name="Path 71439" d="M405.08,286.437h-4.352v-.606l2.176-2.419q.3-.333.5-.588a3.836,3.836,0,0,0,.315-.467,1.687,1.687,0,0,0,.161-.4,1.53,1.53,0,0,0,.046-.376,1.356,1.356,0,0,0-.078-.463,1.092,1.092,0,0,0-.223-.376,1.067,1.067,0,0,0-.36-.254,1.232,1.232,0,0,0-.493-.093,1.556,1.556,0,0,0-.586.1,1.117,1.117,0,0,0-.413.279,1.149,1.149,0,0,0-.247.426,1.768,1.768,0,0,0-.082.55H400.6a2.252,2.252,0,0,1,.14-.794,1.823,1.823,0,0,1,.412-.653,1.962,1.962,0,0,1,.68-.439,2.5,2.5,0,0,1,.94-.163,2.552,2.552,0,0,1,.841.129,1.748,1.748,0,0,1,.63.362,1.561,1.561,0,0,1,.395.564,1.866,1.866,0,0,1,.136.725,1.821,1.821,0,0,1-.1.588,3.371,3.371,0,0,1-.269.591,4.862,4.862,0,0,1-.4.584c-.152.194-.311.383-.479.568l-1.784,1.934h3.335Z" fill="#545ed6"/>
          <path id="Path_71440" data-name="Path 71440" d="M410.327,286.437h-4.352v-.606l2.176-2.419c.2-.222.367-.418.5-.588a3.619,3.619,0,0,0,.315-.467,1.737,1.737,0,0,0,.162-.4,1.58,1.58,0,0,0,.046-.376,1.356,1.356,0,0,0-.078-.463,1.108,1.108,0,0,0-.223-.376,1.061,1.061,0,0,0-.361-.254,1.228,1.228,0,0,0-.493-.093,1.559,1.559,0,0,0-.586.1,1.125,1.125,0,0,0-.413.279,1.16,1.16,0,0,0-.246.426,1.739,1.739,0,0,0-.082.55h-.844a2.252,2.252,0,0,1,.139-.794,1.826,1.826,0,0,1,.413-.653,1.953,1.953,0,0,1,.68-.439,2.5,2.5,0,0,1,.939-.163,2.558,2.558,0,0,1,.842.129,1.744,1.744,0,0,1,.629.362,1.561,1.561,0,0,1,.395.564,1.847,1.847,0,0,1,.137.725,1.821,1.821,0,0,1-.1.588,3.3,3.3,0,0,1-.27.591,4.971,4.971,0,0,1-.4.584q-.228.291-.479.568l-1.784,1.934h3.335Z" fill="#545ed6"/>
        </g>
        <g id="Group_26259" data-name="Group 26259">
          <path id="Path_71441" data-name="Path 71441" d="M453.9,286.437h-4.352v-.606l2.176-2.419q.3-.333.5-.588a3.836,3.836,0,0,0,.315-.467,1.737,1.737,0,0,0,.162-.4,1.579,1.579,0,0,0,.045-.376,1.356,1.356,0,0,0-.078-.463,1.092,1.092,0,0,0-.223-.376,1.057,1.057,0,0,0-.36-.254,1.232,1.232,0,0,0-.493-.093,1.559,1.559,0,0,0-.586.1,1.117,1.117,0,0,0-.413.279,1.149,1.149,0,0,0-.247.426,1.769,1.769,0,0,0-.081.55h-.845a2.252,2.252,0,0,1,.14-.794,1.823,1.823,0,0,1,.412-.653,1.962,1.962,0,0,1,.68-.439,2.5,2.5,0,0,1,.94-.163,2.563,2.563,0,0,1,.842.129,1.752,1.752,0,0,1,.629.362,1.561,1.561,0,0,1,.395.564,1.866,1.866,0,0,1,.136.725,1.821,1.821,0,0,1-.1.588,3.23,3.23,0,0,1-.269.591,4.862,4.862,0,0,1-.4.584q-.228.291-.479.568l-1.784,1.934H453.9Z" fill="#545ed6"/>
          <path id="Path_71442" data-name="Path 71442" d="M456.021,282.706h.6a1.756,1.756,0,0,0,.575-.087,1.168,1.168,0,0,0,.411-.24.981.981,0,0,0,.246-.36,1.243,1.243,0,0,0,.082-.454,1.206,1.206,0,0,0-.288-.87,1.162,1.162,0,0,0-.875-.3,1.47,1.47,0,0,0-.491.079,1.093,1.093,0,0,0-.379.228,1.047,1.047,0,0,0-.244.361,1.251,1.251,0,0,0-.086.472h-.844a1.77,1.77,0,0,1,.146-.716,1.707,1.707,0,0,1,.415-.581,1.984,1.984,0,0,1,.645-.393,2.329,2.329,0,0,1,.838-.144,2.62,2.62,0,0,1,.821.122,1.738,1.738,0,0,1,.632.356,1.6,1.6,0,0,1,.408.586,2.119,2.119,0,0,1,.146.816,1.327,1.327,0,0,1-.062.392,1.586,1.586,0,0,1-.187.4,1.647,1.647,0,0,1-.324.367,1.73,1.73,0,0,1-.472.285,1.794,1.794,0,0,1,.55.276,1.5,1.5,0,0,1,.353.381,1.424,1.424,0,0,1,.187.442,1.973,1.973,0,0,1,.055.457,2.033,2.033,0,0,1-.159.827,1.712,1.712,0,0,1-.443.61,1.968,1.968,0,0,1-.666.376,2.579,2.579,0,0,1-.835.131,2.679,2.679,0,0,1-.816-.121,2.006,2.006,0,0,1-.671-.356,1.683,1.683,0,0,1-.454-.58,1.783,1.783,0,0,1-.167-.786h.849a1.231,1.231,0,0,0,.087.471,1,1,0,0,0,.25.365,1.114,1.114,0,0,0,.4.236,1.587,1.587,0,0,0,.524.082,1.707,1.707,0,0,0,.525-.075,1.04,1.04,0,0,0,.4-.231,1.014,1.014,0,0,0,.251-.388,1.57,1.57,0,0,0,.086-.543,1.325,1.325,0,0,0-.1-.538.994.994,0,0,0-.285-.377,1.255,1.255,0,0,0-.445-.221,2.15,2.15,0,0,0-.584-.073h-.6Z" fill="#545ed6"/>
        </g>
        <g id="Group_26260" data-name="Group 26260">
          <path id="Path_71443" data-name="Path 71443" d="M502.8,286.437h-4.352v-.606l2.176-2.419q.3-.333.5-.588a3.836,3.836,0,0,0,.315-.467,1.737,1.737,0,0,0,.162-.4,1.579,1.579,0,0,0,.045-.376,1.356,1.356,0,0,0-.078-.463,1.091,1.091,0,0,0-.223-.376,1.057,1.057,0,0,0-.36-.254,1.232,1.232,0,0,0-.493-.093,1.559,1.559,0,0,0-.586.1,1.1,1.1,0,0,0-.659.7,1.74,1.74,0,0,0-.082.55h-.845a2.252,2.252,0,0,1,.14-.794,1.823,1.823,0,0,1,.412-.653,1.962,1.962,0,0,1,.68-.439,2.5,2.5,0,0,1,.94-.163,2.563,2.563,0,0,1,.842.129,1.752,1.752,0,0,1,.629.362,1.561,1.561,0,0,1,.395.564,1.866,1.866,0,0,1,.137.725,1.823,1.823,0,0,1-.1.588,3.23,3.23,0,0,1-.269.591,4.862,4.862,0,0,1-.4.584q-.227.291-.479.568l-1.784,1.934H502.8Z" fill="#545ed6"/>
          <path id="Path_71444" data-name="Path 71444" d="M507.262,284.206h.921v.69h-.921v1.541h-.849V284.9h-3.025v-.5l2.975-4.6h.9Zm-2.916,0h2.067v-3.257l-.1.183Z" fill="#545ed6"/>
        </g>
        <g id="Group_26261" data-name="Group 26261">
          <path id="Path_71445" data-name="Path 71445" d="M555.522,286.437H551.17v-.606l2.176-2.419q.3-.333.5-.588a3.7,3.7,0,0,0,.314-.467,1.652,1.652,0,0,0,.162-.4,1.582,1.582,0,0,0,.046-.376,1.356,1.356,0,0,0-.078-.463,1.091,1.091,0,0,0-.223-.376,1.061,1.061,0,0,0-.361-.254,1.223,1.223,0,0,0-.492-.093,1.561,1.561,0,0,0-.587.1,1.113,1.113,0,0,0-.412.279,1.148,1.148,0,0,0-.247.426,1.74,1.74,0,0,0-.082.55h-.844a2.251,2.251,0,0,1,.139-.794,1.838,1.838,0,0,1,.413-.653,1.962,1.962,0,0,1,.68-.439,2.5,2.5,0,0,1,.94-.163,2.557,2.557,0,0,1,.841.129,1.757,1.757,0,0,1,.63.362,1.559,1.559,0,0,1,.394.564,1.847,1.847,0,0,1,.137.725,1.822,1.822,0,0,1-.1.588,3.371,3.371,0,0,1-.269.591,4.865,4.865,0,0,1-.4.584q-.228.291-.479.568l-1.784,1.934h3.335Z" fill="#545ed6"/>
          <path id="Path_71446" data-name="Path 71446" d="M556.8,283.107l.338-3.312h3.4v.78h-2.687l-.2,1.811a2.364,2.364,0,0,1,.459-.2,2.093,2.093,0,0,1,.65-.092,2.065,2.065,0,0,1,.823.158,1.713,1.713,0,0,1,.623.448,2.017,2.017,0,0,1,.393.7,2.9,2.9,0,0,1,.136.917,2.86,2.86,0,0,1-.13.883,1.931,1.931,0,0,1-.39.7,1.777,1.777,0,0,1-.655.461,2.373,2.373,0,0,1-.928.167,2.527,2.527,0,0,1-.76-.112,1.866,1.866,0,0,1-.636-.34,1.8,1.8,0,0,1-.456-.575,2.17,2.17,0,0,1-.219-.813h.8a1.342,1.342,0,0,0,.406.861,1.425,1.425,0,0,0,1.4.184,1.067,1.067,0,0,0,.394-.3,1.365,1.365,0,0,0,.247-.477,2.181,2.181,0,0,0,.084-.627,1.9,1.9,0,0,0-.086-.58,1.346,1.346,0,0,0-.256-.467,1.185,1.185,0,0,0-.417-.313,1.353,1.353,0,0,0-.568-.114,1.887,1.887,0,0,0-.37.03,1.317,1.317,0,0,0-.278.084,1.066,1.066,0,0,0-.226.135c-.068.053-.141.111-.217.175Z" fill="#545ed6"/>
        </g>
        <g id="Group_26262" data-name="Group 26262">
          <path id="Path_71447" data-name="Path 71447" d="M604.574,286.437h-4.352v-.606l2.176-2.419q.3-.333.5-.588a3.836,3.836,0,0,0,.315-.467,1.739,1.739,0,0,0,.162-.4,1.578,1.578,0,0,0,.045-.376,1.356,1.356,0,0,0-.078-.463,1.091,1.091,0,0,0-.223-.376,1.048,1.048,0,0,0-.36-.254,1.228,1.228,0,0,0-.493-.093,1.559,1.559,0,0,0-.586.1,1.1,1.1,0,0,0-.659.7,1.74,1.74,0,0,0-.082.55h-.845a2.252,2.252,0,0,1,.14-.794,1.812,1.812,0,0,1,.413-.653,1.948,1.948,0,0,1,.679-.439,2.5,2.5,0,0,1,.94-.163,2.563,2.563,0,0,1,.842.129,1.744,1.744,0,0,1,.629.362,1.561,1.561,0,0,1,.4.564,1.889,1.889,0,0,1,.037,1.313,3.3,3.3,0,0,1-.27.591,4.865,4.865,0,0,1-.4.584c-.152.194-.311.383-.479.568l-1.784,1.934h3.335Z" fill="#545ed6"/>
          <path id="Path_71448" data-name="Path 71448" d="M608.777,279.79v.716H608.7a2.631,2.631,0,0,0-1.031.182,1.978,1.978,0,0,0-.7.487,2.053,2.053,0,0,0-.415.7,3.153,3.153,0,0,0-.178.811,1.613,1.613,0,0,1,.641-.458,2.142,2.142,0,0,1,.791-.144,1.808,1.808,0,0,1,.855.19,1.757,1.757,0,0,1,.591.5,2.091,2.091,0,0,1,.345.7,2.942,2.942,0,0,1,.112.8,2.886,2.886,0,0,1-.133.887,2.041,2.041,0,0,1-.392.717,1.86,1.86,0,0,1-.643.479,2.135,2.135,0,0,1-.89.176,1.892,1.892,0,0,1-.94-.225,2.047,2.047,0,0,1-.668-.586,2.564,2.564,0,0,1-.4-.818,3.25,3.25,0,0,1-.133-.917v-.4a7.611,7.611,0,0,1,.057-.928,4.483,4.483,0,0,1,.2-.885,3.455,3.455,0,0,1,.376-.784,2.444,2.444,0,0,1,.589-.629,2.726,2.726,0,0,1,.839-.419,3.855,3.855,0,0,1,1.125-.15Zm-1.109,2.993a1.312,1.312,0,0,0-.429.07,1.449,1.449,0,0,0-.678.484,1.288,1.288,0,0,0-.2.358v.311a2.6,2.6,0,0,0,.107.786,1.809,1.809,0,0,0,.287.571,1.256,1.256,0,0,0,.413.349,1.056,1.056,0,0,0,.484.119,1.149,1.149,0,0,0,.52-.113,1.067,1.067,0,0,0,.385-.315,1.433,1.433,0,0,0,.24-.48,2.147,2.147,0,0,0,.082-.612,2.176,2.176,0,0,0-.075-.573,1.526,1.526,0,0,0-.226-.487,1.125,1.125,0,0,0-.379-.34A1.062,1.062,0,0,0,607.668,282.783Z" fill="#545ed6"/>
        </g>
        <g id="Group_26263" data-name="Group 26263">
          <path id="Path_71449" data-name="Path 71449" d="M655.729,286.437h-4.352v-.606l2.176-2.419q.3-.333.5-.588a3.836,3.836,0,0,0,.315-.467,1.736,1.736,0,0,0,.162-.4,1.581,1.581,0,0,0,.045-.376,1.356,1.356,0,0,0-.078-.463,1.092,1.092,0,0,0-.223-.376,1.047,1.047,0,0,0-.36-.254,1.228,1.228,0,0,0-.493-.093,1.559,1.559,0,0,0-.586.1,1.1,1.1,0,0,0-.659.7,1.738,1.738,0,0,0-.082.55h-.844a2.253,2.253,0,0,1,.139-.794,1.813,1.813,0,0,1,.413-.653,1.948,1.948,0,0,1,.679-.439,2.5,2.5,0,0,1,.94-.163,2.563,2.563,0,0,1,.842.129,1.744,1.744,0,0,1,.629.362,1.561,1.561,0,0,1,.395.564,1.888,1.888,0,0,1,.037,1.313,3.3,3.3,0,0,1-.27.591,4.858,4.858,0,0,1-.4.584q-.227.291-.479.568l-1.784,1.934h3.335Z" fill="#545ed6"/>
          <path id="Path_71450" data-name="Path 71450" d="M660.912,280.269l-2.751,6.168h-.885l2.742-5.949h-3.6V279.8h4.489Z" fill="#545ed6"/>
        </g>
        <g id="Group_26267" data-name="Group 26267">
          <g id="Group_26264" data-name="Group 26264">
            <rect id="Rectangle_6388" data-name="Rectangle 6388" width="189.353" height="14.006" rx="7.003" transform="translate(447.127 290.435)" fill="#c1ddfe"/>
          </g>
          <g id="Group_26265" data-name="Group 26265">
            <circle id="Ellipse_1583" data-name="Ellipse 1583" cx="4.594" cy="4.594" r="4.594" transform="translate(451.117 292.76)" fill="#9bc8fe"/>
          </g>
          <g id="Group_26266" data-name="Group 26266">
            <path id="Path_71451" data-name="Path 71451" d="M496.269,298.989H464.12a1.635,1.635,0,0,1-1.635-1.635h0a1.635,1.635,0,0,1,1.635-1.635h32.149a1.635,1.635,0,0,1,1.635,1.635h0A1.635,1.635,0,0,1,496.269,298.989Z" fill="#9bc8fe"/>
          </g>
        </g>
        <g id="Group_26271" data-name="Group 26271">
          <g id="Group_26268" data-name="Group 26268">
            <path id="Path_71452" data-name="Path 71452" d="M633.043,196.467H555.794a7,7,0,0,1-7-7h0a7,7,0,0,1,7-7h77.249a7,7,0,0,1,7,7h0A7,7,0,0,1,633.043,196.467Z" fill="#ffd3d1"/>
          </g>
          <g id="Group_26269" data-name="Group 26269">
            <circle id="Ellipse_1584" data-name="Ellipse 1584" cx="4.594" cy="4.594" r="4.594" transform="translate(552.781 184.787)" fill="#ffbdba"/>
          </g>
          <g id="Group_26270" data-name="Group 26270">
            <path id="Path_71453" data-name="Path 71453" d="M597.934,191.016h-32.15a1.635,1.635,0,0,1-1.635-1.635h0a1.635,1.635,0,0,1,1.635-1.635h32.15a1.635,1.635,0,0,1,1.635,1.635h0A1.635,1.635,0,0,1,597.934,191.016Z" fill="#ffbdba"/>
          </g>
        </g>
        <g id="Group_26280" data-name="Group 26280">
          <g id="Group_26272" data-name="Group 26272">
            <path id="Path_71454" data-name="Path 71454" d="M490.33,212.224H474.583a1.105,1.105,0,0,0-1.105,1.1v11.7a1.105,1.105,0,0,0,1.105,1.1h12.773l3.136,3.137a.553.553,0,0,0,.944-.391V213.329A1.106,1.106,0,0,0,490.33,212.224Z" fill="#fff"/>
          </g>
          <g id="Group_26273" data-name="Group 26273">
            <path id="Path_71455" data-name="Path 71455" d="M462.836,205.988h15.746a1.106,1.106,0,0,1,1.106,1.1v11.7a1.106,1.106,0,0,1-1.106,1.106H465.81l-3.136,3.137a.553.553,0,0,1-.944-.391V207.093A1.106,1.106,0,0,1,462.836,205.988Z" fill="#fff"/>
          </g>
          <g id="Group_26274" data-name="Group 26274">
            <path id="Path_71456" data-name="Path 71456" d="M478.582,220.415h-5.105a.515.515,0,0,1,0-1.03h5.105a.591.591,0,0,0,.591-.59v-6.571a.515.515,0,1,1,1.03,0v6.571A1.622,1.622,0,0,1,478.582,220.415Z" fill="#c0d6fd"/>
          </g>
          <g id="Group_26277" data-name="Group 26277">
            <g id="Group_26275" data-name="Group 26275">
              <path id="Path_71457" data-name="Path 71457" d="M470.581,217.023a.514.514,0,0,1-.515-.515v-7.6a.514.514,0,1,1,1.029,0v7.6A.514.514,0,0,1,470.581,217.023Z" fill="#545ed6"/>
            </g>
            <g id="Group_26276" data-name="Group 26276">
              <path id="Path_71458" data-name="Path 71458" d="M474.379,213.224h-7.6a.514.514,0,0,1,0-1.029h7.6a.514.514,0,1,1,0,1.029Z" fill="#545ed6"/>
            </g>
          </g>
          <g id="Group_26279" data-name="Group 26279">
            <g id="Group_26278" data-name="Group 26278">
              <path id="Path_71459" data-name="Path 71459" d="M482.087,215.236l.168,3.339.038.73.06,1.192h1.324l.079-1.585.033-.739.145-2.937Zm.93,5.841a1.057,1.057,0,1,0,1.034,1.057A1.009,1.009,0,0,0,483.017,221.077Z" fill="#545ed6"/>
            </g>
          </g>
        </g>
      </g>
    </g>
    <g id="Character_1" data-name="Character 1" transform="translate(1350.217 336.916)">
      <path id="Path_97" data-name="Path 97" d="M1464.44,624.656l2.568,10.023.505,1.019,1.874,2.713a2.97,2.97,0,0,1-.7,4.126,3.13,3.13,0,0,1-1,.462s-3.732,1.352-7.472,2.568c-3.9,1.19-8.662.171-8.662-.856,0-2.208,2.037-.505,5.606-2.884l3.569-2.568c3.056-2.38.334-8.491-1.524-11.889-.685-1.181,0-4.28,1.352-4.579l.856-.171A2.97,2.97,0,0,1,1464.44,624.656Z" transform="translate(-1376.314 -386.504)" fill="#fab9af"/>
      <path id="Path_98" data-name="Path 98" d="M1462.41,521.863c-.676-1.866-1.352-3.732-1.712-4.579a7.537,7.537,0,0,0-1.018-1.19,8.628,8.628,0,0,1-1.524-2.208l-.514-3.235c-.171-1.523-1.19-2.713-2.713-2.371h0c-1.712.334-2.208,1.866-1.866,3.561l.334,2.379a8.217,8.217,0,0,1-.171,4.074,15.367,15.367,0,0,0,1.874,8.32c.676,1.524,2.885,2.208,5.769,2.893,1.361.334,3.74.505,2.568-1.027-.856-1.181-5.264-2.568-4.588-6.959,0-.171.171-.856.342-.856.856-.171,1.19,1.524,1.712,2.38.685,1.19,1.712,1.524,2.208,1.352C1463.625,523.9,1462.949,523.224,1462.41,521.863Z" transform="translate(-1376.517 -370.023)" fill="#fab9af"/>
      <path id="Path_99" data-name="Path 99" d="M1461.858,403c-4.588,14.26-16.134,41.084-33.278,50.6-11.555,6.454-39.569,15.963-39.569,15.963s-.856-1.19-1.524-2.208a9.122,9.122,0,0,1-1.027-2.568s34.819-17.837,39.569-23.11c4.588-5.093,20.208-38.208,24.967-43.3C1456.252,392.451,1464.409,395.019,1461.858,403Z" transform="translate(-1366.936 -353.729)" fill="#00aeef"/>
      <path id="Path_100" data-name="Path 100" d="M1456.89,471.749l10.87-77.435,29.718-4.074,15.621,80.833Z" transform="translate(-1377.084 -353.025)" fill="#fab9af"/>
      <path id="Path_101" data-name="Path 101" d="M1528.78,622.193l3.055,10.023a8.495,8.495,0,0,0,.514,1.181l2.208,3.235a3.6,3.6,0,0,1-.976,5,4.088,4.088,0,0,1-.856.437s-4.28,1.524-8.662,2.885c-4.588,1.524-10.194.171-10.194-1.019,0-2.722,2.568-.514,6.625-3.424a34.968,34.968,0,0,0,4.074-2.884c3.569-2.893.514-9.852-1.712-13.926a2.4,2.4,0,0,1,.907-3.287,2.627,2.627,0,0,1,.788-.282l1.018-.171a3.116,3.116,0,0,1,3.21,2.234Z" transform="translate(-1385.293 -386.121)" fill="#fab9af"/>
      <path id="Path_102" data-name="Path 102" d="M1487.519,485.812l-32.944-2.722s-11.718,41.778-14.773,60.454c-2.208,13.421,18.171,65.384,18.171,65.384,2.037.856,3.9-.171,6.111-.685,0,0-6.111-45.843-4.074-57.056,2.208-11.709,19.686-35.315,20.885-41.435A132.721,132.721,0,0,1,1487.519,485.812Z" transform="translate(-1374.597 -366.402)" fill="#5046af"/>
      <path id="Path_103" data-name="Path 103" d="M1486.789,485.506c-3.424,18.171-11.033,45.509,3.569,71.153s30.06,52.305,30.06,52.305a9.184,9.184,0,0,0,5.435-1.866s-2.568-11.555-6.282-25.138c-4.28-15.407-9.68-33.792-8.148-43.3,2.884-17.829,6.111-41.606,5.093-53.153C1515.659,473.789,1488.492,475.826,1486.789,485.506Z" transform="translate(-1380.663 -365.592)" fill="#5046af"/>
      <path id="Path_104" data-name="Path 104" d="M1457.021,472.775a2.645,2.645,0,0,1-1.524-3.056l12.223-75.407,29.718-4.083,15.963,79.644a2.714,2.714,0,0,1-2.106,3.21h-.1a193.7,193.7,0,0,1-33.792,3.235C1466.188,476.336,1459.905,474.127,1457.021,472.775Z" transform="translate(-1376.872 -353.023)" fill="#d2f0ff"/>
      <path id="Path_105" data-name="Path 105" d="M1496.437,410.2c3.569,9.852,9.338,29.213,6.111,46.22-4.579,23.966-10.7,33.621-2.884,39.227s22.588-3.732,23.11-6.8-2.885-41.264-6.616-57.732-14.268-40.228-14.268-40.228l-5.435.505C1496.265,391.181,1494.742,405.62,1496.437,410.2Z" transform="translate(-1382.667 -353.118)" fill="#00aeef"/>
      <path id="Path_106" data-name="Path 106" d="M1471.653,394.21s-2.38,10.7-.514,26.833c1.875,15.963,5.949,64.7-8.653,72.171-4.588,2.371-15.115-9.68-15.115-11.889,0-3.911,3.561-16.648,6.787-28.365,2.722-9.338,5.435-40.579,6.282-52.639a5.786,5.786,0,0,1,5.093-5.264Z" transform="translate(-1375.712 -353.596)" fill="#00aeef"/>
      <g id="Group_121" data-name="Group 121" transform="translate(83.744)">
        <path id="Path_107" data-name="Path 107" d="M1498.657,355.907a11.616,11.616,0,0,0,2.208,7.815c2.713,3.227-1.19,6.274-2.208,8.491-.856,2.208.163,5.6-2.38,7.13s-9.852,1.866-11.033-.685C1484.047,375.773,1490.329,354.375,1498.657,355.907Z" transform="translate(-1464.891 -348.066)" fill="#41378c"/>
        <path id="Path_108" data-name="Path 108" d="M1466.609,360.54c-.342,14.6,13.241,17.5,21.227,17.5s8.32-17.5,8.32-23.966c0-6.282-6.282-7.31-14.1-7.31-6.274,0-12.223,4.93-14.6,9.509A7.514,7.514,0,0,0,1466.609,360.54Z" transform="translate(-1462.226 -346.76)" fill="#41378c"/>
        <path id="Path_109" data-name="Path 109" d="M1481.7,353.34c6.625,0,9.175,4.75,9.175,13.412a19.309,19.309,0,0,1-2.568,8.662,6.7,6.7,0,0,0-.676,5.093l1.524,4.93c1.018,4.579-1.19,7.13-4.417,7.986a5.7,5.7,0,0,1-4.922-.856c-1.712-1.019-1.866-3.424-1.523-5.264l.334-1.352a3.543,3.543,0,0,0-2.422-4.382h-.12c-5.093-1.19-5.777-6.454-7.138-14.773C1467.785,358.262,1475.086,353.34,1481.7,353.34Z" transform="translate(-1462.547 -347.708)" fill="#fab9af"/>
        <path id="Path_110" data-name="Path 110" d="M1465.2,348.609l3.732,1.181a6.042,6.042,0,0,0,4.28,0l7.643-2.2c4.588,0,12.231,2.568,11.2,9.167l-.856,4.75a4.143,4.143,0,0,1-3.732,3.424h0a1.412,1.412,0,0,1-1.361,1.019,1.524,1.524,0,0,1-1.523-1.524h0a4.691,4.691,0,0,0-3.569-4.417,18.958,18.958,0,0,0-8.148,0c-5.264,1.361-10.87-1.866-11.375-7.3V351.69C1461.627,349.79,1463.33,348.095,1465.2,348.609Z" transform="translate(-1461.49 -346.88)" fill="#41378c"/>
        <path id="Path_111" data-name="Path 111" d="M1490.42,368.606c0,2.037.676,3.732,2.722,3.732,1.866,0,3.227-2.713,3.227-4.75s-1.19-2.568-3.227-2.568C1491.267,365,1490.42,366.569,1490.42,368.606Z" transform="translate(-1465.658 -349.391)" fill="#fab9af"/>
        <path id="Path_112" data-name="Path 112" d="M1471.564,375.179a1.54,1.54,0,0,0,1.164,1.832,1.713,1.713,0,0,0,.368.043h0a1.506,1.506,0,0,0,1.523-1.361v-6.454a1.25,1.25,0,0,0-.342-.676.855.855,0,0,0-.676-.342c-.343,0-.685.171-.685.5Z" transform="translate(-1462.936 -349.852)" fill="#fa968c"/>
      </g>
      <path id="Path_113" data-name="Path 113" d="M1486.6,407.7a1.156,1.156,0,0,1,.856.676c1.019,3.235,5.6,18.171,6.616,26.328.856,6.616-1.866,18.163-3.424,24.111a9.364,9.364,0,0,1-4.28,5.606l-1.019.676a1.917,1.917,0,0,1-2.568-.676l-.676-1.712a4.733,4.733,0,0,1-.343-3.732c1.866-4.759,6.282-17.118,5.778-25.3-.171-2.884-2.893-20.542-3.74-24.959a.856.856,0,0,1,.668-1,.641.641,0,0,1,.18,0Z" transform="translate(-1380.633 -355.54)" fill="#afe6ff"/>
      <path id="Path_114" data-name="Path 114" d="M1485.217,405.1a1.156,1.156,0,0,1,.856.676c1.018,3.235,5.264,18.342,6.111,26.534.676,6.616-2.208,18.163-3.9,23.966a9.151,9.151,0,0,1-4.28,5.435l-1.018.505a1.917,1.917,0,0,1-2.568-.676l-.856-1.524a4.143,4.143,0,0,1-.171-3.74c1.866-4.579,6.625-16.981,6.454-25.13,0-2.884-2.568-20.542-3.056-25.13a.958.958,0,0,1,.856-1.027Z" transform="translate(-1380.272 -355.15)" fill="#5159bf"/>
      <path id="Path_115" data-name="Path 115" d="M1483.135,404.889h2.885a.8.8,0,0,0,.856-.753.169.169,0,0,0,0-.094v-2.893a.8.8,0,0,0-.753-.856h-.094l-2.568-.342a1.438,1.438,0,0,0-1.19,1.19v2.884a.916.916,0,0,0,.865.865Z" transform="translate(-1380.74 -354.423)" fill="#5159bf"/>
      <path id="Path_116" data-name="Path 116" d="M1491.584,390l4.75.856s-1.018,7.815-4.75,13.592a.856.856,0,0,1-1.164,0h0L1487,399.689a1.515,1.515,0,0,1,0-1.866Z" transform="translate(-1381.375 -352.99)" fill="#fff"/>
      <path id="Path_117" data-name="Path 117" d="M1479.5,392.42l-4.75,1.532s-.171,4.75,3.561,10.357a.856.856,0,0,0,1.164,0h0l2.722-4.417a2,2,0,0,0,.162-1.712Z" transform="translate(-1379.657 -353.339)" fill="#fff"/>
      <g id="Group_23327" data-name="Group 23327" transform="translate(-4.25 37.528)">
        <ellipse id="Ellipse_1331" data-name="Ellipse 1331" cx="29.174" cy="29.174" rx="29.174" ry="29.174" transform="translate(29.608 28.885)" fill="#fff"/>
        <g id="Group_23328" data-name="Group 23328" transform="translate(60.355 44.426) rotate(60)">
          <path id="Path_63402" data-name="Path 63402" d="M0,10.593V0" transform="matrix(-0.53, 0.848, -0.848, -0.53, 8.983, 5.613)" fill="#4b59d4" stroke="#4b59d4" stroke-linecap="round" stroke-width="5"/>
          <ellipse id="Ellipse_1330" data-name="Ellipse 1330" cx="5.665" cy="5.665" rx="5.665" ry="5.665" transform="translate(6.074 2.175)" fill="#41378c"/>
          <path id="Path_63401" data-name="Path 63401" d="M0,0V15.888" transform="translate(11.739 8.079)" fill="none" stroke="#41378c" stroke-linecap="round" stroke-width="5"/>
        </g>
        <path id="Path_119" data-name="Path 119" d="M473.825,308.406V296.019a5.082,5.082,0,0,0-5.148-5.148h-3.861a5.917,5.917,0,0,1-5.469-3.861c-.643-1.769-1.287-3.378-2.091-5.148a5.634,5.634,0,0,1,1.126-6.6l2.735-2.735a4.96,4.96,0,0,0,0-7.239l-8.686-8.687a4.96,4.96,0,0,0-7.239,0l-2.735,2.735a5.634,5.634,0,0,1-6.6,1.126,49.129,49.129,0,0,0-5.148-2.091,5.758,5.758,0,0,1-3.861-5.469v-3.861a5.082,5.082,0,0,0-5.148-5.148H409.319a5.082,5.082,0,0,0-5.148,5.148v3.861a5.917,5.917,0,0,1-3.861,5.469c-1.769.643-3.378,1.287-5.148,2.091a5.634,5.634,0,0,1-6.6-1.126l-2.735-2.735a4.96,4.96,0,0,0-7.239,0l-8.686,8.687a4.96,4.96,0,0,0,0,7.239l2.735,2.735a5.634,5.634,0,0,1,1.126,6.6,49.123,49.123,0,0,0-2.091,5.148,5.758,5.758,0,0,1-5.469,3.861h-3.861a5.082,5.082,0,0,0-5.148,5.148v12.386a5.082,5.082,0,0,0,5.148,5.148h3.861a5.917,5.917,0,0,1,5.469,3.861c.643,1.77,1.287,3.378,2.091,5.148a5.634,5.634,0,0,1-1.126,6.6l-2.735,2.735a4.96,4.96,0,0,0,0,7.239l8.686,8.687a4.96,4.96,0,0,0,7.239,0l2.735-2.735a5.634,5.634,0,0,1,6.6-1.126,49.145,49.145,0,0,0,5.148,2.091,5.758,5.758,0,0,1,3.861,5.469v3.861a5.082,5.082,0,0,0,5.148,5.148h12.386a5.082,5.082,0,0,0,5.148-5.148v-3.861a5.917,5.917,0,0,1,3.861-5.469c1.769-.643,3.378-1.287,5.148-2.091a5.634,5.634,0,0,1,6.6,1.126l2.735,2.735a4.96,4.96,0,0,0,7.239,0l8.686-8.687a4.96,4.96,0,0,0,0-7.239l-2.735-2.735a5.634,5.634,0,0,1-1.126-6.6,49.132,49.132,0,0,0,2.091-5.148,5.758,5.758,0,0,1,5.469-3.861h3.861A5.183,5.183,0,0,0,473.825,308.406Zm-55.98,21.877a28.08,28.08,0,1,1,25.738-25.738A28.131,28.131,0,0,1,417.845,330.283Z" transform="translate(-357.2 -243.9)" fill="#5968f6"/>
        <path id="Path_347" data-name="Path 347" d="M473.825,308.406V296.019a5.082,5.082,0,0,0-5.148-5.148h-3.861a5.917,5.917,0,0,1-5.469-3.861c-.643-1.769-1.287-3.378-2.091-5.148a5.634,5.634,0,0,1,1.126-6.6l2.735-2.735a4.96,4.96,0,0,0,0-7.239l-8.686-8.687a4.96,4.96,0,0,0-7.239,0l-2.735,2.735a5.634,5.634,0,0,1-6.6,1.126,49.129,49.129,0,0,0-5.148-2.091,5.758,5.758,0,0,1-3.861-5.469v-3.861a5.082,5.082,0,0,0-5.148-5.148H409.319a5.082,5.082,0,0,0-5.148,5.148v3.861a5.917,5.917,0,0,1-3.861,5.469c-1.769.643-3.378,1.287-5.148,2.091a5.634,5.634,0,0,1-6.6-1.126l-2.735-2.735a4.96,4.96,0,0,0-7.239,0l-8.686,8.687a4.96,4.96,0,0,0,0,7.239l2.735,2.735a5.634,5.634,0,0,1,1.126,6.6,49.123,49.123,0,0,0-2.091,5.148,5.758,5.758,0,0,1-5.469,3.861h-3.861a5.082,5.082,0,0,0-5.148,5.148v12.386a5.082,5.082,0,0,0,5.148,5.148h3.861a5.917,5.917,0,0,1,5.469,3.861c.643,1.77,1.287,3.378,2.091,5.148a5.634,5.634,0,0,1-1.126,6.6l-2.735,2.735a4.96,4.96,0,0,0,0,7.239l8.686,8.687a4.96,4.96,0,0,0,7.239,0l2.735-2.735a5.634,5.634,0,0,1,6.6-1.126,49.145,49.145,0,0,0,5.148,2.091,5.758,5.758,0,0,1,3.861,5.469v3.861a5.082,5.082,0,0,0,5.148,5.148h12.386a5.082,5.082,0,0,0,5.148-5.148v-3.861a5.917,5.917,0,0,1,3.861-5.469c1.769-.643,3.378-1.287,5.148-2.091a5.634,5.634,0,0,1,6.6,1.126l2.735,2.735a4.96,4.96,0,0,0,7.239,0l8.686-8.687a4.96,4.96,0,0,0,0-7.239l-2.735-2.735a5.634,5.634,0,0,1-1.126-6.6,49.132,49.132,0,0,0,2.091-5.148,5.758,5.758,0,0,1,5.469-3.861h3.861A5.183,5.183,0,0,0,473.825,308.406Zm-55.98,21.877a28.08,28.08,0,1,1,25.738-25.738A28.131,28.131,0,0,1,417.845,330.283Z" transform="translate(-357.2 -243.9)" fill="#101a43" opacity="0.19"/>
        <circle id="Ellipse_6" data-name="Ellipse 6" cx="37.481" cy="37.481" r="37.481" transform="matrix(0.664, -0.748, 0.748, 0.664, 5.357, 61.633)" fill="none" stroke="#41378c" stroke-miterlimit="10" stroke-width="2.961"/>
        <path id="Path_120" data-name="Path 120" d="M370.2,294.381A37.518,37.518,0,0,1,407.681,256.9" transform="translate(-349.288 -235.988)" fill="none" stroke="#5046af" stroke-linecap="round" stroke-miterlimit="10" stroke-width="2.961"/>
      </g>
      <path id="Path_121" data-name="Path 121" d="M1433.983,407.564a2.662,2.662,0,0,0,.334-3.74l-1.018-1.352a8.969,8.969,0,0,1-2.037-5.435c0-1.361-.856-5.264-2.208-4.93-1.19.171,0,4.93-1.19,4.759-.5,0-2.568-3.424-4.074-5.435-.856-1.019-2.38-1.712-2.568-.676-.171.676-.856.676-1.532,1.19s-.334,3.9-.334,4.922c0,1.19-.342,1.523,1.352,3.424,1.361,1.524,7.138,5.264,7.138,5.264l2.568,1.712a2.482,2.482,0,0,0,3.492.4l.077-.06Z" transform="translate(-1371.663 -353.025)" fill="#fab9af"/>
      <path id="Path_122" data-name="Path 122" d="M1434.745,402.292s23.966,23.11,29.555,24.959,21.732-31.412,24.616-34.81c4.759-5.769,15.116.171,13.25,10.7-2.208,13.25-33.963,39.056-37.866,39.372s-33.8-35.153-33.8-35.153C1431.013,405.691,1432.374,403.987,1434.745,402.292Z" transform="translate(-1373.281 -353.017)" fill="#00aeef"/>
    </g>
    <g id="Character_2" data-name="Character 2" transform="translate(1201.347 238.065)">
      <path id="Path_3273" data-name="Path 3273" d="M1290.7,396.686s-4.28,30.933-.616,45.227,17.255,46.845,13.592,49.643-25.019,2.371-27.612-.428-5.991-92.037,1.541-96.052S1290.162,389.787,1290.7,396.686Z" transform="translate(-1219.134 -254.397)" fill="#5968f6"/>
      <path id="Path_3274" data-name="Path 3274" d="M1265.514,380s6.847-6.959,38.8-11.495L1324.444,338a4.425,4.425,0,0,1,4.28,3.15s-11.178,27.886-20.182,38.106-33.9,15.141-40.759,13.455S1260.815,383.2,1265.514,380Z" transform="translate(-1217.587 -246.647)" fill="#5968f6"/>
      <path id="Path_3275" data-name="Path 3275" d="M1262.383,360.757c-1.232-4.913-3.167-12.12-7.378-14.277-3.424-1.78-8.91.916-12.925,2.029-.394.1-.77.223-1.147.359-5.538,2.011-9.552,5.752-10.271,9.98a20.986,20.986,0,0,1-2.44,7.4,37,37,0,0,0-3.783,8.148,21.4,21.4,0,0,1-7.772,12.231c-4.339,3.184-6.993,9.244-6.556,16.057a22.039,22.039,0,0,0,2.8,9.509,17.333,17.333,0,0,1,2.131,9.167,21.21,21.21,0,0,0,6.111,15.92c5.384,5.136,12.933,5.272,17.88.265,2.319-2.345,2.979-6.308,2.842-10.5-.291-9.1,4.716-16.579,11.914-17.76.317-.051.616-.1.856-.163,5.889-1.241,10.408-7.113,11.127-14.474a22.675,22.675,0,0,0-.625-7.969,29.757,29.757,0,0,1-.856-11.127C1264.789,371.85,1263.7,366,1262.383,360.757Z" transform="translate(-1210.065 -247.784)" fill="#1e2d64"/>
      <path id="Path_3276" data-name="Path 3276" d="M1266.3,388.516a31.927,31.927,0,0,1-.659-3.21,27.96,27.96,0,0,0-.719-3.21c-.265-.924-.488-1.866-.676-2.816-.8-4.1-.856-8.354-2.131-12.351-.856-2.568-2.08-4.759-2.825-7.258a1.421,1.421,0,0,0-1.712-.959c-1.909.445-3.792.916-6.95,1.78a14.439,14.439,0,0,0-10.434,13.01c-1.044,13.019-12.839,24.942-19.447,36.924-6.685,12.377-2.431,28.245,9.244,29.666a11.657,11.657,0,0,0,10.031-3.621,10.194,10.194,0,0,0,2.944-7.515h0c-.291-9.1,4.716-16.579,11.915-17.76.317-.051.616-.1.856-.163,5.889-1.241,10.408-7.113,11.127-14.474A22.674,22.674,0,0,0,1266.3,388.516Z" transform="translate(-1211.147 -249.625)" fill="#0f1446"/>
      <path id="Path_3277" data-name="Path 3277" d="M1220.281,624.338a2.21,2.21,0,0,0-3.792.8c-.317.753-1.267,3.424-1.66,4.143a8.034,8.034,0,0,1-2.32,2.662c-1.96,1.635-1.412,3.218.976,6.325,2,2.568-.18,5.726,2.268,6.77,3.372,1.455,5.837,1.8,6.359,1.018.736-1.121-.24-1.489-2.842-3.749s.146-11.769,1.472-15.595A2.414,2.414,0,0,0,1220.281,624.338Z" transform="translate(-1210.245 -287.789)" fill="#fab9af"/>
      <path id="Path_3278" data-name="Path 3278" d="M1276.075,627.326a2.277,2.277,0,0,0-3.612,1.635,24.133,24.133,0,0,1-.385,2.568,8.241,8.241,0,0,1-1.506,3.193c-1.5,2.063-.582,3.424,2.5,5.889,2.568,2.037,1.224,5.6,3.852,5.991,3.629.582,6.1.308,6.411-.573.445-1.275-.591-1.387-3.663-2.944-3.218-1.626-2.919-9.578-2.568-13.609a2.431,2.431,0,0,0-1.027-2.183Z" transform="translate(-1218.681 -288.27)" fill="#fab9af"/>
      <path id="Path_3279" data-name="Path 3279" d="M1247.34,352.886c-6.736,1.6-8.1,6.993-6.111,15.886a18.476,18.476,0,0,0,4.725,8.071,6.848,6.848,0,0,1,1.849,4.981l-.282,5.358c.1,4.879,2.91,6.9,6.385,7.044a6.505,6.505,0,0,0,4.759-1.986c1.412-1.481.993-3.843.214-5.735l-.719-1.335a3.646,3.646,0,0,1,1.489-5.024c1.429-.685,3.03-.779,3.963-1.806s1.626-9.7-1.626-17.9C1258.621,352.03,1254.068,351.285,1247.34,352.886Z" transform="translate(-1214.435 -248.694)" fill="#fab9af"/>
      <path id="Path_3280" data-name="Path 3280" d="M1264.7,372.574a1.583,1.583,0,0,1-1.173,2.174h0a1.592,1.592,0,0,1-1.832-1.181l-1.233-6.625a.933.933,0,0,1,.753-1.1.77.77,0,0,1,.856.454Z" transform="translate(-1217.324 -250.656)" fill="#fa968c"/>
      <path id="Path_3281" data-name="Path 3281" d="M1237.671,358.621c-.514,1.292-3.424,4.091-1.01,5.461l7.147,4.031a.856.856,0,0,0,1.19-.916l-.539-2.08a2.191,2.191,0,0,1,1.275-2.568l1.25-.522a7.7,7.7,0,0,0,2.568-1.926,7.472,7.472,0,0,1,4.588-2.431,7,7,0,0,1,3.715.573,6.4,6.4,0,0,0,3.578.394,1.326,1.326,0,0,0,1.027-.856C1265.523,348.436,1243.928,343.018,1237.671,358.621Z" transform="translate(-1213.761 -248.199)" fill="#1e2d64"/>
      <path id="Path_3282" data-name="Path 3282" d="M1244.494,371.812c.5,2.054,1.061,4.648-.736,5.076s-4.511-2.876-5-4.93.548-2.842,2.345-3.27S1244.006,369.8,1244.494,371.812Z" transform="translate(-1214.182 -251.059)" fill="#fab9af"/>
      <path id="Path_3283" data-name="Path 3283" d="M1273.6,462.854a13.036,13.036,0,0,1,11.486,10.913,203.635,203.635,0,0,1-1.018,66.933l-8.388,65.05a11.016,11.016,0,0,1-5.067-.591s-6.591-94.9-10.468-114.693-.359-28.9-.359-28.9Z" transform="translate(-1217.018 -264.451)" fill="#4d4cad"/>
      <path id="Path_3284" data-name="Path 3284" d="M1270.52,517.76c-1.481-23.966-7.823-31.156-4.725-55.156v-.591l-5.991-.454s-3.518,9.133.36,28.9c1.4,7.147,3.158,24.12,4.827,42.873C1267.173,557.945,1270.982,525.189,1270.52,517.76Z" transform="translate(-1217.021 -264.45)" fill="#3c3c96"/>
      <path id="Path_3285" data-name="Path 3285" d="M1249.081,461.1a14.439,14.439,0,0,0-14.5,10.271c-2.85,9.415-5.581,25.37-3.022,48.565,0,0,1.969,12.616,0,20.73s-14.551,61-14.551,61a7.959,7.959,0,0,0,4.793,2.174s21.732-42.916,27.227-59.059,15.081-67.917,13.156-82.519Z" transform="translate(-1211.066 -264.381)" fill="#4d4cad"/>
      <path id="Path_3286" data-name="Path 3286" d="M1280.1,417.536c-.2-3.253-5.555-11.324-8.337-15.312,0,0-3.321-8.7-8.782-9.612a32.3,32.3,0,0,0-16.588.993l-2.568.77a9.167,9.167,0,0,0-6.377,10.382l9.064,51.167c8.294,5.863,19.84,7.746,34.091,6.325a2.431,2.431,0,0,0,2.1-3.09l-7.489-25.618a13.4,13.4,0,0,1,2.944-10.271,7.969,7.969,0,0,0,1.943-5.735Z" transform="translate(-1213.99 -254.423)" fill="#fff"/>
      <path id="Path_3287" data-name="Path 3287" d="M1256.133,408.156c.522,10.853,3.612,27.758-7.3,43.25s-.488,26.328-4.81,40.031c-1.832,5.812-21.621,5.991-28.494,1.31-1.917-1.31,10.981-36.685,17.2-49.036s1.558-38.688,1.558-38.688-2.422-10.1,8.936-11.127C1255.277,392.749,1255.927,403.816,1256.133,408.156Z" transform="translate(-1210.825 -254.689)" fill="#00aeef"/>
      <path id="Path_3288" data-name="Path 3288" d="M1242.438,408.366c1.447.616,16.186,8.422,17.444,23.35,1.216-8.919.052-17.264-.257-23.564-.214-4.34-.856-15.407-12.916-14.285C1235.351,394.919,1240.315,407.459,1242.438,408.366Z" transform="translate(-1214.308 -254.685)" fill="#5968f6"/>
      <rect id="Rectangle_3792" data-name="Rectangle 3792" width="17.307" height="5.641" rx="1.47" transform="matrix(0.959, 0.283, -0.283, 0.959, 11.746, 206.916)" fill="#5968f6"/>
      <path id="Path_3292" data-name="Path 3292" d="M1295.168,318.434c1.19,1.575,3.09,3.107,3.492,3.783.111.18,1.412,2.8,2.328,4.648a8.3,8.3,0,0,1,.856,4.365,5.335,5.335,0,0,1-.736,2.722s-2.491.813-3.681-.437l-.282-3.5A9.9,9.9,0,0,0,1293.61,328c-2.568-1.087-3.7-4.528-5.135-6.736a7.148,7.148,0,0,1-.539-6.2,7.7,7.7,0,0,1,1.832,2.7,9.744,9.744,0,0,0,4.109,3.9c.2.094.719.282.856.086.522-.6-.736-1.832-1.147-2.679-.582-1.181-.419-2.14,0-2.457S1294.312,317.278,1295.168,318.434Z" transform="translate(-1030.109 -667.572) rotate(20)" fill="#fab9af"/>
      <path id="Path_3293" data-name="Path 3293" d="M1240.542,386.788s9.244-6.282,38.576-19.815L1289.654,332c2.089-1.019,3.895-1.036,5.384,0,0,0-1.318,28.622-7,41s-35.838,26.9-42.882,27.253S1234.062,390.468,1240.542,386.788Z" transform="translate(-1213.987 -245.672)" fill="#00aeef"/>
    </g>
  </g>
</svg>
